<svg width="106" height="32" viewBox="0 0 106 32" fill="none" xmlns="http://www.w3.org/2000/svg">
<rect x="0.867733" y="1.04449" width="104.327" height="30.1994" rx="15.0997" fill="#1A1A1A"/>
<rect x="0.867733" y="1.04449" width="104.327" height="30.1994" rx="15.0997" stroke="#262626" stroke-width="0.512811"/>
<path fill-rule="evenodd" clip-rule="evenodd" d="M16.0247 26.372C21.7047 26.372 26.3093 21.7928 26.3093 16.144C26.3093 10.4952 21.7047 5.91602 16.0247 5.91602C10.3448 5.91602 5.74023 10.4952 5.74023 16.144C5.74023 21.7928 10.3448 26.372 16.0247 26.372Z" fill="#262626"/>
<path fill-rule="evenodd" clip-rule="evenodd" d="M15.1228 11.4238C15.6877 11.4238 16.2504 11.4238 16.8152 11.4238C16.782 11.8038 16.7467 12.1859 16.7156 12.5659C17.3738 12.6134 18.0155 12.824 18.5928 13.1358C18.3436 13.7595 18.0923 14.3832 17.8411 15.0069C17.3551 14.5959 16.7156 14.3687 16.0781 14.377C15.9182 14.3811 15.752 14.4121 15.6191 14.503C15.5319 14.5629 15.4675 14.6558 15.4489 14.7591C15.4343 14.8417 15.4385 14.9346 15.4842 15.0089C15.5361 15.0915 15.6274 15.1411 15.7188 15.1721C15.9057 15.2382 16.1071 15.2423 16.3023 15.263C16.7613 15.3187 17.2222 15.3972 17.6563 15.5603C17.9927 15.6884 18.3145 15.8804 18.545 16.1613C18.7631 16.4194 18.8897 16.7457 18.9375 17.0803C18.9936 17.4665 18.977 17.8671 18.8565 18.243C18.7631 18.5445 18.6032 18.8254 18.3955 19.0628C17.9657 19.5585 17.3344 19.8559 16.6865 19.9323C16.7073 20.3391 16.7322 20.7439 16.755 21.1507C16.2193 21.1507 15.6856 21.1507 15.1519 21.1507C15.1727 20.748 15.1997 20.3453 15.2184 19.9426C14.7885 19.9281 14.3628 19.8332 13.962 19.6824C13.5737 19.5358 13.2041 19.3416 12.8594 19.1145C13.1127 18.466 13.3661 17.8176 13.6215 17.167C13.9101 17.4087 14.2175 17.6338 14.5539 17.8052C14.9152 17.989 15.316 18.1067 15.723 18.1108C15.9161 18.1129 16.1154 18.1025 16.2982 18.0365C16.4103 17.9952 16.5204 17.9229 16.5702 17.8093C16.6221 17.6895 16.618 17.5388 16.5391 17.4314C16.483 17.3591 16.4041 17.3095 16.321 17.2744C16.2089 17.229 16.0926 17.2042 15.9742 17.1856C15.5382 17.1154 15.1 17.0576 14.6785 16.9213C14.34 16.8118 14.0098 16.659 13.7398 16.4236C13.5696 16.2769 13.4284 16.0973 13.3287 15.8949C13.1792 15.5934 13.1231 15.2526 13.1273 14.9181C13.1273 14.5443 13.2041 14.1643 13.391 13.8359C13.5529 13.5427 13.8001 13.3031 14.0783 13.1193C14.4147 12.8984 14.7906 12.7476 15.1727 12.6258C15.1561 12.2251 15.1394 11.8245 15.1228 11.4238Z" fill="#CAFF33"/>
<path d="M50.9234 16.1447C50.9234 21.7638 46.3432 26.3189 40.6932 26.3189C35.0431 26.3189 30.4629 21.7638 30.4629 16.1447C30.4629 10.5258 35.0431 5.9707 40.6932 5.9707C46.3432 5.9707 50.9234 10.5258 50.9234 16.1447Z" fill="#262626"/>
<path d="M43.5665 20.3947L43.3305 19.3287C43.3171 19.266 43.2834 19.219 43.2293 19.1879C43.1709 19.1565 43.1125 19.1522 43.0541 19.1745L43.0203 19.1879L42.9393 19.208C42.9033 19.2168 42.8617 19.2269 42.8146 19.2381C42.7673 19.2493 42.7124 19.2604 42.6494 19.2716C42.5867 19.2828 42.52 19.2929 42.4505 19.3018C42.3809 19.3106 42.3057 19.3186 42.2248 19.3253C42.1438 19.3319 42.0629 19.3353 41.982 19.3353C41.4111 19.3353 40.8975 19.1822 40.4413 18.876C39.9851 18.5697 39.6491 18.1551 39.4333 17.6322H42.0425C42.0921 17.6322 42.137 17.6155 42.1773 17.5819C42.2179 17.5484 42.2426 17.5071 42.2514 17.4578L42.4133 16.7068C42.4268 16.6399 42.4133 16.5795 42.3729 16.5258C42.328 16.4721 42.2717 16.4452 42.2043 16.4452H39.1098C39.0963 16.1413 39.0963 15.9066 39.1098 15.7412H42.4C42.5215 15.7412 42.5933 15.6831 42.6158 15.5669L42.7776 14.8025C42.791 14.7399 42.7755 14.6819 42.7304 14.6282C42.6901 14.5745 42.6339 14.5476 42.5619 14.5476H39.4065C39.6312 14.0469 39.9683 13.6536 40.4178 13.3675C40.8673 13.0813 41.3752 12.9383 41.9416 12.9383C41.9596 12.9294 42.0259 12.9316 42.1404 12.945C42.255 12.9584 42.3203 12.964 42.336 12.9617C42.3515 12.9595 42.4102 12.9663 42.5112 12.9818C42.6124 12.9975 42.663 13.0053 42.663 13.0053L42.781 13.0288C42.8147 13.0355 42.8406 13.041 42.8585 13.0455L42.8855 13.0522C42.9439 13.0702 42.9977 13.0645 43.0473 13.0355C43.0968 13.0064 43.1283 12.9629 43.1418 12.9047L43.4318 11.8386C43.4452 11.7805 43.4384 11.7268 43.4116 11.6777C43.3711 11.624 43.3261 11.5904 43.2766 11.5771C42.8631 11.4743 42.427 11.4229 41.9686 11.4229C40.9616 11.4229 40.0616 11.709 39.2682 12.2811C38.4749 12.8533 37.9276 13.6088 37.6264 14.5475H36.9657C36.9028 14.5475 36.8511 14.5676 36.8106 14.6078C36.7703 14.648 36.75 14.6994 36.75 14.7621V15.5265C36.75 15.589 36.7702 15.6405 36.8106 15.6806C36.8511 15.7209 36.9029 15.7409 36.9657 15.7409H37.4175C37.4039 15.9556 37.4018 16.1901 37.4107 16.445H36.9657C36.9073 16.445 36.8567 16.4662 36.814 16.5087C36.7714 16.5512 36.75 16.6015 36.75 16.6595V17.4172C36.75 17.4754 36.7714 17.5256 36.814 17.5682C36.8568 17.6106 36.9073 17.6317 36.9657 17.6317H37.6063C37.8894 18.6196 38.4244 19.4053 39.211 19.9886C39.9976 20.5721 40.9168 20.8637 41.9686 20.8637C42.0541 20.8637 42.1405 20.8616 42.2282 20.857C42.3161 20.8525 42.398 20.8457 42.4744 20.8369C42.5508 20.828 42.6261 20.8181 42.7003 20.8068C42.7744 20.7956 42.8419 20.7846 42.9025 20.7732C42.9632 20.7621 43.0205 20.751 43.0744 20.7399C43.1284 20.7286 43.1767 20.7164 43.2194 20.7029C43.2621 20.6897 43.2979 20.6795 43.3272 20.6729C43.3565 20.6662 43.3801 20.6582 43.3979 20.6495L43.4317 20.6427C43.4812 20.6249 43.5194 20.5924 43.5463 20.5454C43.5733 20.4987 43.58 20.4484 43.5665 20.3947Z" fill="#CAFF33"/>
<path d="M75.3432 18.6184C73.9696 24.0977 68.389 27.4321 62.8787 26.066C57.371 24.6999 54.018 19.15 55.3919 13.6709C56.7649 8.19098 62.3452 4.85601 67.8538 6.22209C73.3638 7.58816 76.7165 13.1388 75.3429 18.6184H75.3432Z" fill="#262626"/>
<path fill-rule="evenodd" clip-rule="evenodd" d="M68.4641 14.9562C68.6028 14.0329 67.8959 13.5366 66.9294 13.2055L67.2429 11.9548L66.4772 11.7651L66.172 12.9828C65.971 12.933 65.7643 12.8859 65.5589 12.8393L65.8663 11.6136L65.1012 11.4238L64.7875 12.6741C64.6209 12.6363 64.4574 12.599 64.2987 12.5598L64.2996 12.5559L63.2439 12.2937L63.0402 13.1069C63.0402 13.1069 63.6082 13.2363 63.5962 13.2443C63.9062 13.3213 63.9625 13.5253 63.9529 13.6871L63.5958 15.1119C63.6171 15.1173 63.6448 15.1251 63.6753 15.1372L63.5947 15.1173L63.0939 17.1132C63.0559 17.2069 62.9598 17.3474 62.7431 17.294C62.7507 17.3051 62.1867 17.1559 62.1867 17.1559L61.8066 18.0276L62.803 18.2745C62.9155 18.3026 63.0266 18.3314 63.1365 18.3599L63.1366 18.3599C63.2077 18.3784 63.2784 18.3967 63.3485 18.4146L63.0317 19.6798L63.7964 19.8695L64.1103 18.618C64.319 18.6744 64.5217 18.7264 64.7201 18.7754L64.4075 20.0211L65.173 20.2108L65.4898 18.9482C66.7951 19.1939 67.7769 19.0948 68.1896 17.9209C68.5225 16.9755 68.1732 16.4302 67.4865 16.0744C67.9866 15.9592 68.3634 15.632 68.4639 14.9562H68.4641ZM66.7136 17.3951C66.4963 18.2628 65.1304 17.9038 64.506 17.7396L64.5059 17.7396C64.45 17.7249 64.4001 17.7118 64.3574 17.7013L64.7778 16.0254C64.8299 16.0383 64.8936 16.0526 64.9658 16.0687C65.6118 16.2128 66.9357 16.5083 66.7139 17.3951H66.7136ZM65.0955 15.291C65.6165 15.4292 66.7522 15.7305 66.9501 14.9423C67.1523 14.136 66.048 13.8929 65.5087 13.7742C65.448 13.7609 65.3945 13.7491 65.3508 13.7383L64.9697 15.2583C65.0058 15.2672 65.0481 15.2784 65.0955 15.291Z" fill="#CAFF33"/>
<path d="M100.267 16.1447C100.267 21.7638 95.687 26.3189 90.037 26.3189C84.3869 26.3189 79.8066 21.7638 79.8066 16.1447C79.8066 10.5258 84.3869 5.9707 90.037 5.9707C95.6869 5.9707 100.267 10.5258 100.267 16.1447Z" fill="#262626"/>
<g opacity="0.8">
<path d="M90.0046 11.4238L89.9414 11.6374V17.8354L90.0046 17.8982L92.8975 16.1975L90.0046 11.4238Z" fill="#CAFF33"/>
<path d="M90.0043 11.4238L87.1113 16.1975L90.0043 17.8982V14.8899V11.4238Z" fill="#CAFF33"/>
<path d="M90.0044 18.8345L89.9688 18.8777V21.0856L90.0044 21.189L92.899 17.1348L90.0044 18.8345Z" fill="#CAFF33"/>
<path d="M90.0043 21.189V18.8345L87.1113 17.1348L90.0043 21.189Z" fill="#CAFF33"/>
<path d="M90.0039 17.8979L92.8968 16.1973L90.0039 14.8896V17.8979Z" fill="#CAFF33"/>
<path d="M87.1113 16.1973L90.0042 17.898V14.8896L87.1113 16.1973Z" fill="#CAFF33"/>
</g>
</svg>
