<svg width="112" height="45" viewBox="0 0 112 45" fill="none" xmlns="http://www.w3.org/2000/svg">
<rect x="0.28125" y="0.429688" width="111.238" height="43.9228" rx="6.15373" fill="#22251B"/>
<rect x="10.5371" y="11.126" width="22.5976" height="22.5298" rx="11.2649" fill="#CAFF33"/>
<path fill-rule="evenodd" clip-rule="evenodd" d="M21.8382 18.9385C22.0512 18.9385 22.2239 19.1102 22.2239 19.322V22.0069L24.9236 22.0069C25.1366 22.0069 25.3092 22.1786 25.3092 22.3904C25.3092 22.6023 25.1366 22.774 24.9236 22.774H22.2239V25.4588C22.2239 25.6707 22.0512 25.8424 21.8382 25.8424C21.6252 25.8424 21.4525 25.6707 21.4525 25.4588V22.774H18.7529C18.5399 22.774 18.3672 22.6023 18.3672 22.3904C18.3672 22.1786 18.5399 22.0069 18.7529 22.0069L21.4525 22.0069V19.322C21.4525 19.1102 21.6252 18.9385 21.8382 18.9385Z" fill="#1A1A1A"/>
<path d="M38.7252 17.2246V16.3015H43.8636V17.2246H38.7252ZM40.7457 19.204V14.2503H41.8226V19.204H40.7457ZM50.4182 19.7373C49.8302 19.7373 49.3106 19.6211 48.8593 19.3886C48.4149 19.1561 48.032 18.8074 47.7106 18.3425L48.4696 17.4707C48.8046 17.9493 49.126 18.2809 49.4336 18.4656C49.7413 18.6502 50.1071 18.7425 50.5311 18.7425C50.7909 18.7425 51.0268 18.7015 51.2387 18.6194C51.4507 18.5374 51.6182 18.4245 51.7413 18.2809C51.8644 18.1374 51.9259 17.9733 51.9259 17.7886C51.9259 17.6656 51.9054 17.5493 51.8644 17.4399C51.8233 17.3305 51.7584 17.2314 51.6695 17.1425C51.5875 17.0536 51.4781 16.9716 51.3413 16.8964C51.2114 16.8211 51.0575 16.7562 50.8798 16.7015C50.702 16.64 50.4969 16.5887 50.2644 16.5476C49.7721 16.4519 49.3619 16.3083 49.0337 16.1169C48.7123 15.9254 48.4696 15.6827 48.3055 15.3887C48.1482 15.0947 48.0696 14.7528 48.0696 14.3631C48.0696 14.0759 48.1311 13.8092 48.2542 13.5631C48.3841 13.3169 48.5585 13.105 48.7773 12.9272C49.0029 12.7426 49.2661 12.6024 49.567 12.5067C49.8678 12.4041 50.1926 12.3529 50.5413 12.3529C51.0952 12.3529 51.5772 12.4623 51.9874 12.6811C52.4045 12.893 52.7327 13.2041 52.972 13.6144L52.1926 14.3836C51.9874 14.0485 51.7413 13.7921 51.4541 13.6144C51.1738 13.4366 50.8593 13.3477 50.5106 13.3477C50.2439 13.3477 50.0114 13.3887 49.8131 13.4708C49.6148 13.5528 49.4576 13.6691 49.3413 13.8195C49.2319 13.9631 49.1772 14.134 49.1772 14.3323C49.1772 14.4759 49.2046 14.6092 49.2593 14.7323C49.314 14.8485 49.396 14.9545 49.5054 15.0502C49.6217 15.1391 49.7755 15.2212 49.967 15.2964C50.1584 15.3648 50.3875 15.4263 50.6541 15.481C51.0302 15.563 51.3652 15.669 51.6592 15.7989C51.9533 15.922 52.2028 16.069 52.4079 16.24C52.6131 16.4109 52.7669 16.6023 52.8695 16.8143C52.9789 17.0263 53.0336 17.2553 53.0336 17.5015C53.0336 17.9596 52.9276 18.3562 52.7156 18.6912C52.5037 19.0262 52.2028 19.2861 51.8131 19.4707C51.4234 19.6484 50.9584 19.7373 50.4182 19.7373ZM49.8029 20.5681V15.9118L50.7977 16.2502V20.5681H49.8029ZM51.208 16.2502L50.2131 15.9118V11.6144H51.208V16.2502ZM56.2338 19.7066C55.762 19.7066 55.3346 19.6006 54.9517 19.3886C54.5688 19.1698 54.2509 18.8587 53.9979 18.4553L54.6133 17.7681C54.9346 18.1237 55.215 18.3664 55.4543 18.4963C55.6936 18.6262 55.9534 18.6912 56.2338 18.6912C56.5141 18.6912 56.7671 18.6297 56.9927 18.5066C57.2184 18.3835 57.3961 18.216 57.526 18.004C57.6628 17.7921 57.7312 17.5562 57.7312 17.2963C57.7312 17.0229 57.6662 16.7801 57.5363 16.5682C57.4132 16.3494 57.2457 16.1784 57.0337 16.0553C56.8218 15.9254 56.5825 15.8605 56.3158 15.8605C56.1859 15.8605 56.0628 15.8707 55.9466 15.8912C55.8303 15.9049 55.6902 15.9425 55.5261 16.0041C55.362 16.0656 55.1466 16.1613 54.8799 16.2912L54.2953 15.5015L54.7158 12.4554H58.5927V13.481H55.4133L55.6286 13.2862L55.2902 15.563L55.0338 15.2656C55.1022 15.1972 55.2184 15.1323 55.3825 15.0708C55.5466 15.0024 55.7278 14.9477 55.9261 14.9067C56.1312 14.8588 56.3261 14.8349 56.5107 14.8349C56.9483 14.8349 57.338 14.9374 57.6799 15.1425C58.0286 15.3408 58.3021 15.6177 58.5004 15.9733C58.7055 16.3288 58.8081 16.7357 58.8081 17.1938C58.8081 17.6656 58.6952 18.0929 58.4696 18.4758C58.244 18.8519 57.9363 19.1527 57.5466 19.3784C57.1568 19.5972 56.7192 19.7066 56.2338 19.7066ZM62.5348 19.7373C61.9878 19.7373 61.516 19.5869 61.1194 19.2861C60.7297 18.9852 60.4288 18.5613 60.2169 18.0143C60.0049 17.4604 59.8989 16.8041 59.8989 16.0451C59.8989 15.2861 60.0049 14.6332 60.2169 14.0862C60.4288 13.5323 60.7297 13.105 61.1194 12.8041C61.516 12.5033 61.9878 12.3529 62.5348 12.3529C63.0818 12.3529 63.5535 12.5033 63.9501 12.8041C64.3467 13.105 64.651 13.5323 64.8629 14.0862C65.0749 14.6332 65.1809 15.2861 65.1809 16.0451C65.1809 16.8041 65.0749 17.4604 64.8629 18.0143C64.651 18.5613 64.3467 18.9852 63.9501 19.2861C63.5535 19.5869 63.0818 19.7373 62.5348 19.7373ZM62.5348 18.7322C63.0339 18.7322 63.4202 18.4997 63.6937 18.0348C63.9672 17.563 64.104 16.8998 64.104 16.0451C64.104 15.1904 63.9672 14.5306 63.6937 14.0656C63.4202 13.5939 63.0339 13.358 62.5348 13.358C62.0356 13.358 61.6493 13.5939 61.3758 14.0656C61.1023 14.5306 60.9656 15.1904 60.9656 16.0451C60.9656 16.8998 61.1023 17.563 61.3758 18.0348C61.6493 18.4997 62.0356 18.7322 62.5348 18.7322ZM68.7646 19.7373C68.2176 19.7373 67.7458 19.5869 67.3492 19.2861C66.9595 18.9852 66.6587 18.5613 66.4467 18.0143C66.2347 17.4604 66.1288 16.8041 66.1288 16.0451C66.1288 15.2861 66.2347 14.6332 66.4467 14.0862C66.6587 13.5323 66.9595 13.105 67.3492 12.8041C67.7458 12.5033 68.2176 12.3529 68.7646 12.3529C69.3116 12.3529 69.7834 12.5033 70.18 12.8041C70.5765 13.105 70.8808 13.5323 71.0928 14.0862C71.3047 14.6332 71.4107 15.2861 71.4107 16.0451C71.4107 16.8041 71.3047 17.4604 71.0928 18.0143C70.8808 18.5613 70.5765 18.9852 70.18 19.2861C69.7834 19.5869 69.3116 19.7373 68.7646 19.7373ZM68.7646 18.7322C69.2637 18.7322 69.6501 18.4997 69.9236 18.0348C70.1971 17.563 70.3338 16.8998 70.3338 16.0451C70.3338 15.1904 70.1971 14.5306 69.9236 14.0656C69.6501 13.5939 69.2637 13.358 68.7646 13.358C68.2655 13.358 67.8792 13.5939 67.6057 14.0656C67.3322 14.5306 67.1954 15.1904 67.1954 16.0451C67.1954 16.8998 67.3322 17.563 67.6057 18.0348C67.8792 18.4997 68.2655 18.7322 68.7646 18.7322ZM74.9945 19.7373C74.4475 19.7373 73.9757 19.5869 73.5791 19.2861C73.1894 18.9852 72.8885 18.5613 72.6766 18.0143C72.4646 17.4604 72.3586 16.8041 72.3586 16.0451C72.3586 15.2861 72.4646 14.6332 72.6766 14.0862C72.8885 13.5323 73.1894 13.105 73.5791 12.8041C73.9757 12.5033 74.4475 12.3529 74.9945 12.3529C75.5415 12.3529 76.0132 12.5033 76.4098 12.8041C76.8064 13.105 77.1107 13.5323 77.3226 14.0862C77.5346 14.6332 77.6406 15.2861 77.6406 16.0451C77.6406 16.8041 77.5346 17.4604 77.3226 18.0143C77.1107 18.5613 76.8064 18.9852 76.4098 19.2861C76.0132 19.5869 75.5415 19.7373 74.9945 19.7373ZM74.9945 18.7322C75.4936 18.7322 75.8799 18.4997 76.1534 18.0348C76.4269 17.563 76.5637 16.8998 76.5637 16.0451C76.5637 15.1904 76.4269 14.5306 76.1534 14.0656C75.8799 13.5939 75.4936 13.358 74.9945 13.358C74.4953 13.358 74.109 13.5939 73.8355 14.0656C73.562 14.5306 73.4253 15.1904 73.4253 16.0451C73.4253 16.8998 73.562 17.563 73.8355 18.0348C74.109 18.4997 74.4953 18.7322 74.9945 18.7322ZM79.0192 21.4706L78.6295 20.9988C78.8688 20.8621 79.0637 20.7048 79.2141 20.5271C79.3645 20.3493 79.4397 20.1954 79.4397 20.0655C79.4397 19.9972 79.4226 19.9288 79.3884 19.8604C79.3543 19.7989 79.2825 19.71 79.1731 19.5937C79.0363 19.4638 78.9474 19.3544 78.9064 19.2655C78.8654 19.1767 78.8449 19.0809 78.8449 18.9784C78.8449 18.8143 78.903 18.6844 79.0192 18.5886C79.1355 18.4861 79.2859 18.4348 79.4705 18.4348C79.6414 18.4348 79.7953 18.4861 79.932 18.5886C80.0756 18.6844 80.185 18.8211 80.2602 18.9989C80.3423 19.1698 80.3833 19.3681 80.3833 19.5937C80.3833 19.7989 80.3491 19.9972 80.2807 20.1886C80.2124 20.3801 80.1166 20.5578 79.9936 20.7219C79.8705 20.886 79.7269 21.033 79.5628 21.1629C79.3987 21.2929 79.2175 21.3954 79.0192 21.4706ZM83.9586 19.7373C83.4116 19.7373 82.9398 19.5869 82.5433 19.2861C82.1535 18.9852 81.8527 18.5613 81.6407 18.0143C81.4288 17.4604 81.3228 16.8041 81.3228 16.0451C81.3228 15.2861 81.4288 14.6332 81.6407 14.0862C81.8527 13.5323 82.1535 13.105 82.5433 12.8041C82.9398 12.5033 83.4116 12.3529 83.9586 12.3529C84.5056 12.3529 84.9774 12.5033 85.374 12.8041C85.7706 13.105 86.0748 13.5323 86.2868 14.0862C86.4987 14.6332 86.6047 15.2861 86.6047 16.0451C86.6047 16.8041 86.4987 17.4604 86.2868 18.0143C86.0748 18.5613 85.7706 18.9852 85.374 19.2861C84.9774 19.5869 84.5056 19.7373 83.9586 19.7373ZM83.9586 18.7322C84.4578 18.7322 84.8441 18.4997 85.1176 18.0348C85.3911 17.563 85.5278 16.8998 85.5278 16.0451C85.5278 15.1904 85.3911 14.5306 85.1176 14.0656C84.8441 13.5939 84.4578 13.358 83.9586 13.358C83.4595 13.358 83.0732 13.5939 82.7997 14.0656C82.5262 14.5306 82.3894 15.1904 82.3894 16.0451C82.3894 16.8998 82.5262 17.563 82.7997 18.0348C83.0732 18.4997 83.4595 18.7322 83.9586 18.7322ZM90.1885 19.7373C89.6415 19.7373 89.1697 19.5869 88.7731 19.2861C88.3834 18.9852 88.0825 18.5613 87.8706 18.0143C87.6586 17.4604 87.5526 16.8041 87.5526 16.0451C87.5526 15.2861 87.6586 14.6332 87.8706 14.0862C88.0825 13.5323 88.3834 13.105 88.7731 12.8041C89.1697 12.5033 89.6415 12.3529 90.1885 12.3529C90.7355 12.3529 91.2073 12.5033 91.6038 12.8041C92.0004 13.105 92.3047 13.5323 92.5166 14.0862C92.7286 14.6332 92.8346 15.2861 92.8346 16.0451C92.8346 16.8041 92.7286 17.4604 92.5166 18.0143C92.3047 18.5613 92.0004 18.9852 91.6038 19.2861C91.2073 19.5869 90.7355 19.7373 90.1885 19.7373ZM90.1885 18.7322C90.6876 18.7322 91.0739 18.4997 91.3474 18.0348C91.6209 17.563 91.7577 16.8998 91.7577 16.0451C91.7577 15.1904 91.6209 14.5306 91.3474 14.0656C91.0739 13.5939 90.6876 13.358 90.1885 13.358C89.6893 13.358 89.303 13.5939 89.0295 14.0656C88.756 14.5306 88.6193 15.1904 88.6193 16.0451C88.6193 16.8998 88.756 17.563 89.0295 18.0348C89.303 18.4997 89.6893 18.7322 90.1885 18.7322Z" fill="white"/>
<path d="M39.1088 33.1475V27.404H39.7324L41.9395 30.9896L41.6441 30.9813L43.8759 27.404H44.4584V33.1475H43.8184V30.5219C43.8184 30.0296 43.8266 29.5865 43.8431 29.1927C43.8595 28.7988 43.8895 28.4077 43.9333 28.0194L44.0482 28.2491L41.9887 31.4819H41.5457L39.5436 28.2901L39.6339 28.0194C39.6777 28.3858 39.7077 28.7633 39.7242 29.1516C39.7406 29.5345 39.7488 29.9913 39.7488 30.5219V33.1475H39.1088ZM47.8011 33.2295C47.3745 33.2295 46.9943 33.1338 46.6606 32.9423C46.3324 32.7509 46.0726 32.4856 45.8812 32.1465C45.6952 31.8073 45.6022 31.4217 45.6022 30.9896C45.6022 30.5629 45.6952 30.1827 45.8812 29.8491C46.0726 29.5154 46.3324 29.2528 46.6606 29.0614C46.9943 28.8699 47.3745 28.7742 47.8011 28.7742C48.2223 28.7742 48.597 28.8699 48.9252 29.0614C49.2589 29.2528 49.5187 29.5154 49.7047 29.8491C49.8961 30.1827 49.9918 30.5629 49.9918 30.9896C49.9918 31.4217 49.8961 31.8073 49.7047 32.1465C49.5187 32.4856 49.2589 32.7509 48.9252 32.9423C48.597 33.1338 48.2223 33.2295 47.8011 33.2295ZM47.8011 32.647C48.102 32.647 48.37 32.5758 48.6052 32.4336C48.8404 32.2859 49.0237 32.089 49.1549 31.8429C49.2862 31.5913 49.3519 31.3068 49.3519 30.9896C49.3519 30.6723 49.2862 30.3906 49.1549 30.1444C49.0237 29.8983 48.8404 29.7068 48.6052 29.5701C48.37 29.4279 48.102 29.3568 47.8011 29.3568C47.5003 29.3568 47.2295 29.4279 46.9888 29.5701C46.7536 29.7068 46.5676 29.901 46.4309 30.1526C46.2996 30.3988 46.2367 30.6778 46.2422 30.9896C46.2367 31.3068 46.2996 31.5913 46.4309 31.8429C46.5676 32.089 46.7536 32.2859 46.9888 32.4336C47.2295 32.5758 47.5003 32.647 47.8011 32.647ZM50.8896 33.1475V28.8645H51.4968L51.5214 29.7588L51.423 29.7998C51.4777 29.6139 51.5843 29.4443 51.743 29.2911C51.9016 29.138 52.0903 29.0149 52.3091 28.9219C52.5334 28.8234 52.7631 28.7742 52.9983 28.7742C53.3156 28.7742 53.5809 28.8371 53.7942 28.9629C54.0075 29.0887 54.1689 29.2829 54.2783 29.5455C54.3877 29.808 54.4424 30.1417 54.4424 30.5465V33.1475H53.8188V30.5793C53.8188 30.2949 53.7805 30.0624 53.704 29.8819C53.6328 29.6959 53.5207 29.5592 53.3675 29.4716C53.2144 29.3841 53.0257 29.3431 52.8014 29.3486C52.6154 29.3486 52.4431 29.3814 52.2845 29.447C52.1259 29.5072 51.9891 29.592 51.8742 29.7014C51.7594 29.8108 51.6691 29.9366 51.6035 30.0788C51.5378 30.221 51.505 30.3742 51.505 30.5383V33.1475H51.2014C51.1631 33.1475 51.1194 33.1475 51.0702 33.1475C51.0209 33.1475 50.9608 33.1475 50.8896 33.1475ZM56.2079 33.1475V27.7404H56.8233V33.1475H56.2079ZM55.2397 29.4552V28.8645H57.9063V29.4552H55.2397ZM58.6619 33.1475V27.0758H59.2773V29.7998L59.1542 29.9229C59.2144 29.6986 59.3265 29.5017 59.4906 29.3321C59.6547 29.1571 59.8462 29.0204 60.065 28.9219C60.2893 28.8234 60.5163 28.7742 60.746 28.7742C61.0742 28.7742 61.3477 28.8371 61.5665 28.9629C61.7853 29.0887 61.9467 29.2829 62.0506 29.5455C62.16 29.808 62.2147 30.1417 62.2147 30.5465V33.1475H61.5911V30.5793C61.5911 30.2949 61.5528 30.0624 61.4762 29.8819C61.4051 29.6959 61.293 29.5592 61.1398 29.4716C60.9867 29.3841 60.7952 29.3431 60.5655 29.3486C60.385 29.3486 60.2154 29.3814 60.0568 29.447C59.8981 29.5072 59.7614 29.592 59.6465 29.7014C59.5317 29.8108 59.4414 29.9366 59.3758 30.0788C59.3101 30.221 59.2773 30.3742 59.2773 30.5383V33.1475H58.9737C58.9354 33.1475 58.8917 33.1475 58.8424 33.1475C58.7932 33.1475 58.733 33.1475 58.6619 33.1475ZM63.4058 33.1475V27.0758H64.0212V33.1475H63.4058ZM65.8342 35.0346L66.6629 33.0162L66.7203 33.5987L64.5706 28.8645H65.268L66.7367 32.1465C66.7805 32.234 66.8242 32.3379 66.868 32.4582C66.9118 32.5731 66.9528 32.688 66.9911 32.8029L66.7613 32.7782C66.7996 32.6852 66.8352 32.5895 66.868 32.4911C66.9063 32.3926 66.9418 32.2969 66.9747 32.2039L68.2628 28.8645H68.9685L67.2372 33.1475L66.4988 35.0346H65.8342ZM71.8903 33.1475V32.5403H72.8174V28.0111H71.8903V27.404H74.3846V28.0111H73.4574V32.5403H74.3846V33.1475H71.8903ZM75.5606 33.1475V28.8645H76.1678L76.1924 29.7588L76.094 29.7998C76.1487 29.6139 76.2553 29.4443 76.414 29.2911C76.5726 29.138 76.7613 29.0149 76.9801 28.9219C77.2044 28.8234 77.4341 28.7742 77.6693 28.7742C77.9866 28.7742 78.2519 28.8371 78.4652 28.9629C78.6785 29.0887 78.8399 29.2829 78.9493 29.5455C79.0587 29.808 79.1134 30.1417 79.1134 30.5465V33.1475H78.4898V30.5793C78.4898 30.2949 78.4515 30.0624 78.375 29.8819C78.3038 29.6959 78.1917 29.5592 78.0385 29.4716C77.8854 29.3841 77.6967 29.3431 77.4724 29.3486C77.2864 29.3486 77.1141 29.3814 76.9555 29.447C76.7969 29.5072 76.6601 29.592 76.5452 29.7014C76.4304 29.8108 76.3401 29.9366 76.2745 30.0788C76.2088 30.221 76.176 30.3742 76.176 30.5383V33.1475H75.8724C75.8341 33.1475 75.7904 33.1475 75.7412 33.1475C75.6919 33.1475 75.6318 33.1475 75.5606 33.1475ZM82.0932 33.2295C81.6884 33.2295 81.3274 33.1338 81.0102 32.9423C80.6929 32.7454 80.4413 32.4801 80.2553 32.1465C80.0748 31.8073 79.9845 31.4244 79.9845 30.9978C79.9845 30.5711 80.0748 30.1909 80.2553 29.8573C80.4413 29.5181 80.6929 29.2528 81.0102 29.0614C81.3274 28.8699 81.6912 28.7742 82.1014 28.7742C82.4679 28.7742 82.8016 28.8481 83.1024 28.9957C83.4033 29.138 83.644 29.3376 83.8245 29.5947L83.4634 30.0378C83.3595 29.901 83.2337 29.7807 83.086 29.6768C82.9438 29.5728 82.7879 29.4935 82.6183 29.4388C82.4542 29.3786 82.2901 29.3486 82.126 29.3486C81.8361 29.3486 81.5763 29.4224 81.3466 29.5701C81.1168 29.7123 80.9336 29.9065 80.7968 30.1526C80.6655 30.3988 80.5999 30.6805 80.5999 30.9978C80.5999 31.315 80.6655 31.5995 80.7968 31.8511C80.9336 32.0972 81.1168 32.2914 81.3466 32.4336C81.5763 32.5758 81.8334 32.647 82.1178 32.647C82.2819 32.647 82.4433 32.6223 82.6019 32.5731C82.7605 32.5184 82.911 32.4418 83.0532 32.3434C83.1954 32.2449 83.3267 32.1218 83.447 31.9742L83.8081 32.4172C83.6221 32.6634 83.3732 32.8603 83.0614 33.008C82.7496 33.1557 82.4269 33.2295 82.0932 33.2295ZM86.5023 33.2295C86.0756 33.2295 85.6955 33.1338 85.3618 32.9423C85.0336 32.7509 84.7738 32.4856 84.5823 32.1465C84.3964 31.8073 84.3034 31.4217 84.3034 30.9896C84.3034 30.5629 84.3964 30.1827 84.5823 29.8491C84.7738 29.5154 85.0336 29.2528 85.3618 29.0614C85.6955 28.8699 86.0756 28.7742 86.5023 28.7742C86.9235 28.7742 87.2982 28.8699 87.6264 29.0614C87.96 29.2528 88.2199 29.5154 88.4058 29.8491C88.5973 30.1827 88.693 30.5629 88.693 30.9896C88.693 31.4217 88.5973 31.8073 88.4058 32.1465C88.2199 32.4856 87.96 32.7509 87.6264 32.9423C87.2982 33.1338 86.9235 33.2295 86.5023 33.2295ZM86.5023 32.647C86.8031 32.647 87.0712 32.5758 87.3064 32.4336C87.5416 32.2859 87.7248 32.089 87.8561 31.8429C87.9874 31.5913 88.053 31.3068 88.053 30.9896C88.053 30.6723 87.9874 30.3906 87.8561 30.1444C87.7248 29.8983 87.5416 29.7068 87.3064 29.5701C87.0712 29.4279 86.8031 29.3568 86.5023 29.3568C86.2014 29.3568 85.9307 29.4279 85.69 29.5701C85.4548 29.7068 85.2688 29.901 85.1321 30.1526C85.0008 30.3988 84.9379 30.6778 84.9434 30.9896C84.9379 31.3068 85.0008 31.5913 85.1321 31.8429C85.2688 32.089 85.4548 32.2859 85.69 32.4336C85.9307 32.5758 86.2014 32.647 86.5023 32.647ZM89.5826 33.1475V28.8645H90.198L90.2144 29.8409L90.0913 29.8819C90.1351 29.7178 90.2062 29.5701 90.3047 29.4388C90.4086 29.3021 90.5317 29.1845 90.6739 29.086C90.8161 28.9875 90.972 28.9137 91.1416 28.8645C91.3111 28.8098 91.4889 28.7824 91.6749 28.7824C91.8992 28.7824 92.0988 28.8207 92.2739 28.8973C92.4544 28.9684 92.6048 29.0942 92.7251 29.2747C92.8509 29.4498 92.9467 29.6822 93.0123 29.9721L92.8646 29.8983L92.922 29.7588C92.9767 29.633 93.0561 29.5127 93.16 29.3978C93.2694 29.2774 93.3925 29.1708 93.5292 29.0778C93.6714 28.9848 93.8246 28.9137 93.9887 28.8645C94.1583 28.8098 94.3306 28.7824 94.5056 28.7824C94.8065 28.7824 95.0608 28.8481 95.2687 28.9793C95.4765 29.1051 95.6324 29.2993 95.7363 29.5619C95.8457 29.8244 95.9004 30.1581 95.9004 30.5629V33.1475H95.2687V30.5957C95.2687 30.3113 95.2331 30.0788 95.162 29.8983C95.0909 29.7178 94.9842 29.5838 94.842 29.4962C94.7053 29.4033 94.5302 29.3568 94.3169 29.3568C94.1309 29.3568 93.9586 29.3896 93.8 29.4552C93.6468 29.5154 93.5128 29.6029 93.3979 29.7178C93.2885 29.8272 93.201 29.953 93.1354 30.0952C93.0752 30.2374 93.0451 30.3906 93.0451 30.5547V33.1475H92.4215V30.5875C92.4215 30.314 92.3833 30.087 92.3067 29.9065C92.2356 29.726 92.1289 29.5892 91.9867 29.4962C91.8445 29.4033 91.6694 29.3568 91.4616 29.3568C91.2811 29.3568 91.1142 29.3896 90.9611 29.4552C90.8079 29.5154 90.6739 29.6002 90.559 29.7096C90.4496 29.819 90.3621 29.9448 90.2965 30.087C90.2363 30.2292 90.2062 30.3824 90.2062 30.5465V33.1475H89.5826ZM98.9538 33.2295C98.5271 33.2295 98.147 33.1365 97.8133 32.9505C97.4851 32.7646 97.228 32.5047 97.042 32.1711C96.8561 31.8374 96.7631 31.4545 96.7631 31.0224C96.7631 30.6887 96.815 30.3879 96.919 30.1198C97.0229 29.8463 97.1678 29.6084 97.3538 29.406C97.5453 29.2036 97.7723 29.0477 98.0348 28.9383C98.2974 28.8234 98.5818 28.766 98.8881 28.766C99.1781 28.766 99.4406 28.818 99.6758 28.9219C99.9165 29.0258 100.122 29.1708 100.291 29.3568C100.466 29.5373 100.598 29.7533 100.685 30.005C100.773 30.2566 100.811 30.5328 100.8 30.8337L100.792 31.1208H97.2225L97.1323 30.6039H100.324L100.176 30.7434V30.5465C100.165 30.3496 100.108 30.1609 100.004 29.9803C99.9001 29.7944 99.7524 29.6439 99.561 29.5291C99.375 29.4142 99.1507 29.3568 98.8881 29.3568C98.5818 29.3568 98.3165 29.4197 98.0923 29.5455C97.868 29.6658 97.6957 29.8463 97.5754 30.087C97.455 30.3277 97.3948 30.6258 97.3948 30.9813C97.3948 31.3205 97.4605 31.6159 97.5918 31.8675C97.723 32.1136 97.909 32.3051 98.1497 32.4418C98.3958 32.5786 98.6912 32.647 99.0358 32.647C99.2382 32.647 99.4379 32.6141 99.6348 32.5485C99.8372 32.4774 100.059 32.3406 100.299 32.1382L100.619 32.5813C100.494 32.7071 100.343 32.8193 100.168 32.9177C99.9931 33.0107 99.8016 33.0873 99.5938 33.1475C99.3859 33.2022 99.1726 33.2295 98.9538 33.2295Z" fill="#E4E4E7"/>
</svg>
