<svg width="266" height="109" viewBox="0 0 266 109" fill="none" xmlns="http://www.w3.org/2000/svg">
<g opacity="0.2">
<rect x="21.5552" y="63.1275" width="222.887" height="44.8971" rx="5.89732" fill="#1C1C1C"/>
<rect x="21.5552" y="63.1275" width="222.887" height="44.8971" rx="5.89732" stroke="#262626" stroke-width="0.512811"/>
<rect x="33.6055" y="74.3115" width="22.5976" height="22.5298" rx="11.2649" fill="#CAFF33"/>
<path fill-rule="evenodd" clip-rule="evenodd" d="M46.8802 80.8141C46.7063 81.0003 46.7171 81.2916 46.9044 81.4645L48.2005 82.6615L42.8998 82.6615C42.6442 82.6615 42.437 82.8675 42.437 83.1217C42.437 83.3759 42.6442 83.582 42.8998 83.582L48.2005 83.582L46.9044 84.7789C46.7171 84.9519 46.7063 85.2431 46.8802 85.4294C47.0541 85.6156 47.3469 85.6264 47.5342 85.4534L49.694 83.459C49.7883 83.3719 49.8419 83.2497 49.8419 83.1217C49.8419 82.9937 49.7883 82.8715 49.694 82.7844L47.5342 80.79C47.3469 80.617 47.0541 80.6278 46.8802 80.8141ZM42.9304 85.7235C42.7565 85.5372 42.4637 85.5264 42.2764 85.6994L40.1166 87.6939C40.0223 87.781 39.9688 87.9032 39.9688 88.0311C39.9688 88.1591 40.0223 88.2813 40.1166 88.3684L42.2764 90.3629C42.4637 90.5358 42.7565 90.5251 42.9304 90.3388C43.1044 90.1525 43.0935 89.8613 42.9062 89.6883L41.6101 88.4914H46.9108C47.1664 88.4914 47.3736 88.2853 47.3736 88.0311C47.3736 87.777 47.1664 87.5709 46.9108 87.5709H41.6101L42.9062 86.374C43.0935 86.201 43.1044 85.9098 42.9304 85.7235Z" fill="#1C1C1C"/>
<path d="M63.4551 81.0762V75.3163H61.6089V74.6148H66.095V75.3163H64.1751V81.0762H63.4551ZM66.4859 81.0762V76.2578H67.1782L67.1967 77.5409L67.1229 77.3655C67.1905 77.1501 67.2982 76.9501 67.4459 76.7655C67.5998 76.5809 67.7813 76.4332 67.9905 76.3224C68.1998 76.2116 68.4305 76.1563 68.6828 76.1563C68.7874 76.1563 68.8859 76.1655 68.9782 76.184C69.0705 76.1963 69.1474 76.2147 69.209 76.2393L69.0151 77.0147C68.9351 76.9778 68.8521 76.9532 68.7659 76.9409C68.6859 76.9224 68.609 76.9132 68.5351 76.9132C68.3259 76.9132 68.1382 76.9501 67.9721 77.0239C67.8059 77.0978 67.6644 77.2024 67.5475 77.3378C67.4305 77.467 67.3413 77.6178 67.2798 77.7901C67.2182 77.9624 67.1875 78.147 67.1875 78.3439V81.0762H66.4859ZM71.6051 81.1685C71.1866 81.1685 70.8082 81.0608 70.4697 80.8454C70.1313 80.6239 69.8636 80.3254 69.6667 79.95C69.4698 79.5685 69.3713 79.1377 69.3713 78.6578C69.3713 78.1716 69.4728 77.7409 69.6759 77.3655C69.879 76.9901 70.1497 76.6947 70.4882 76.4793C70.8328 76.264 71.2174 76.1563 71.642 76.1563C71.8943 76.1563 72.1282 76.1932 72.3436 76.267C72.5589 76.3409 72.7497 76.4455 72.9158 76.5809C73.0882 76.7101 73.2297 76.8639 73.3405 77.0424C73.4574 77.2147 73.5374 77.4024 73.5805 77.6055L73.3774 77.5039L73.4051 76.2578H74.0974V81.0762H73.3958V79.8947L73.5805 79.7747C73.5374 79.9593 73.4543 80.1377 73.3312 80.31C73.2081 80.4762 73.0574 80.6239 72.8789 80.7531C72.7066 80.8823 72.5097 80.9839 72.2882 81.0577C72.0728 81.1316 71.8451 81.1685 71.6051 81.1685ZM71.762 80.5039C72.082 80.5039 72.3682 80.427 72.6205 80.2731C72.8728 80.1131 73.0697 79.8947 73.2112 79.6177C73.3589 79.3347 73.4328 79.0147 73.4328 78.6578C73.4328 78.3008 73.3589 77.9839 73.2112 77.707C73.0697 77.4301 72.8728 77.2116 72.6205 77.0516C72.3682 76.8916 72.082 76.8116 71.762 76.8116C71.4359 76.8116 71.1467 76.8916 70.8943 77.0516C70.6482 77.2116 70.4513 77.4301 70.3036 77.707C70.1621 77.9839 70.0913 78.3008 70.0913 78.6578C70.0913 79.0085 70.1621 79.3254 70.3036 79.6085C70.4451 79.8854 70.642 80.1039 70.8943 80.2639C71.1467 80.4239 71.4359 80.5039 71.762 80.5039ZM75.4461 81.0762V76.2578H76.1292L76.1569 77.2639L76.0461 77.3101C76.1076 77.1009 76.2276 76.9101 76.4061 76.7378C76.5846 76.5655 76.7969 76.427 77.043 76.3224C77.2953 76.2116 77.5538 76.1563 77.8184 76.1563C78.1753 76.1563 78.4737 76.227 78.7137 76.3686C78.9537 76.5101 79.1353 76.7286 79.2583 77.0239C79.3814 77.3193 79.443 77.6947 79.443 78.1501V81.0762H78.7414V78.187C78.7414 77.867 78.6984 77.6055 78.6122 77.4024C78.5322 77.1932 78.4061 77.0393 78.2338 76.9409C78.0614 76.8424 77.8491 76.7963 77.5968 76.8024C77.3876 76.8024 77.1938 76.8393 77.0153 76.9132C76.8369 76.9809 76.683 77.0762 76.5538 77.1993C76.4246 77.3224 76.323 77.4639 76.2492 77.6239C76.1753 77.7839 76.1384 77.9562 76.1384 78.1408V81.0762H75.7969C75.7538 81.0762 75.7046 81.0762 75.6492 81.0762C75.5938 81.0762 75.5261 81.0762 75.4461 81.0762ZM82.3429 81.1685C81.9306 81.1685 81.5614 81.0916 81.2353 80.9377C80.9091 80.7839 80.6507 80.5808 80.4599 80.3285L80.9491 79.9039C81.1276 80.1193 81.3368 80.2823 81.5768 80.3931C81.823 80.5039 82.0968 80.5593 82.3983 80.5593C82.5522 80.5593 82.6906 80.5439 82.8137 80.5131C82.9368 80.4762 83.0445 80.4239 83.1368 80.3562C83.2291 80.2885 83.2999 80.2085 83.3491 80.1162C83.3983 80.0239 83.4229 79.9223 83.4229 79.8116C83.4229 79.6085 83.3337 79.4393 83.1552 79.3039C83.0752 79.2485 82.9614 79.1931 82.8137 79.1377C82.666 79.0762 82.4876 79.0177 82.2783 78.9624C81.9337 78.8639 81.6476 78.7654 81.4199 78.667C81.1922 78.5624 81.0137 78.4424 80.8845 78.307C80.7922 78.1962 80.7214 78.0762 80.6722 77.947C80.6291 77.8178 80.6076 77.6762 80.6076 77.5224C80.6076 77.3255 80.6476 77.1439 80.7276 76.9778C80.8137 76.8116 80.9307 76.667 81.0784 76.544C81.2322 76.4147 81.4107 76.3193 81.6137 76.2578C81.823 76.1901 82.0476 76.1563 82.2876 76.1563C82.5153 76.1563 82.7399 76.187 82.9614 76.2486C83.1829 76.3101 83.3891 76.3993 83.5798 76.5163C83.7706 76.6332 83.9337 76.7716 84.0691 76.9316L83.6445 77.3932C83.5275 77.2701 83.3983 77.1593 83.2568 77.0609C83.1152 76.9624 82.9645 76.8855 82.8045 76.8301C82.6506 76.7747 82.4906 76.747 82.3245 76.747C82.1768 76.747 82.0383 76.7655 81.9091 76.8024C81.786 76.8393 81.6783 76.8916 81.586 76.9593C81.4999 77.0209 81.4322 77.0978 81.383 77.1901C81.3399 77.2824 81.3184 77.3839 81.3184 77.4947C81.3184 77.587 81.3368 77.6701 81.3737 77.7439C81.4107 77.8178 81.463 77.8824 81.5307 77.9378C81.6168 78.0055 81.7368 78.0701 81.8907 78.1316C82.0506 78.187 82.2476 78.2455 82.4814 78.307C82.7522 78.3808 82.9799 78.4578 83.1645 78.5378C83.3552 78.6116 83.5122 78.7008 83.6352 78.8054C83.8014 78.9285 83.9183 79.0701 83.986 79.2301C84.0598 79.3901 84.0968 79.5716 84.0968 79.7747C84.0968 80.0454 84.0198 80.2854 83.866 80.4946C83.7183 80.7039 83.5122 80.87 83.2475 80.9931C82.9829 81.11 82.6814 81.1685 82.3429 81.1685ZM87.0645 81.1685C86.6461 81.1685 86.2676 81.0608 85.9292 80.8454C85.5907 80.6239 85.323 80.3254 85.1261 79.95C84.9292 79.5685 84.8307 79.1377 84.8307 78.6578C84.8307 78.1716 84.9323 77.7409 85.1353 77.3655C85.3384 76.9901 85.6092 76.6947 85.9476 76.4793C86.2922 76.264 86.6769 76.1563 87.1015 76.1563C87.3538 76.1563 87.5876 76.1932 87.803 76.267C88.0184 76.3409 88.2091 76.4455 88.3753 76.5809C88.5476 76.7101 88.6891 76.8639 88.7999 77.0424C88.9168 77.2147 88.9968 77.4024 89.0399 77.6055L88.8368 77.5039L88.8645 76.2578H89.5568V81.0762H88.8553V79.8947L89.0399 79.7747C88.9968 79.9593 88.9137 80.1377 88.7907 80.31C88.6676 80.4762 88.5168 80.6239 88.3384 80.7531C88.1661 80.8823 87.9691 80.9839 87.7476 81.0577C87.5322 81.1316 87.3045 81.1685 87.0645 81.1685ZM87.2215 80.5039C87.5415 80.5039 87.8276 80.427 88.0799 80.2731C88.3322 80.1131 88.5291 79.8947 88.6707 79.6177C88.8184 79.3347 88.8922 79.0147 88.8922 78.6578C88.8922 78.3008 88.8184 77.9839 88.6707 77.707C88.5291 77.4301 88.3322 77.2116 88.0799 77.0516C87.8276 76.8916 87.5415 76.8116 87.2215 76.8116C86.8953 76.8116 86.6061 76.8916 86.3538 77.0516C86.1076 77.2116 85.9107 77.4301 85.763 77.707C85.6215 77.9839 85.5507 78.3008 85.5507 78.6578C85.5507 79.0085 85.6215 79.3254 85.763 79.6085C85.9046 79.8854 86.1015 80.1039 86.3538 80.2639C86.6061 80.4239 86.8953 80.5039 87.2215 80.5039ZM92.9363 81.1685C92.4809 81.1685 92.0748 81.0608 91.7178 80.8454C91.3609 80.6239 91.0779 80.3254 90.8686 79.95C90.6656 79.5685 90.564 79.1377 90.564 78.6578C90.564 78.1778 90.6656 77.7501 90.8686 77.3747C91.0779 76.9932 91.3609 76.6947 91.7178 76.4793C92.0748 76.264 92.484 76.1563 92.9455 76.1563C93.3578 76.1563 93.7332 76.2393 94.0716 76.4055C94.4101 76.5655 94.6809 76.7901 94.8839 77.0793L94.4778 77.5778C94.3609 77.4239 94.2193 77.2886 94.0532 77.1716C93.8932 77.0547 93.7178 76.9655 93.527 76.9039C93.3424 76.8363 93.1578 76.8024 92.9732 76.8024C92.6471 76.8024 92.3548 76.8855 92.0963 77.0516C91.8378 77.2116 91.6317 77.4301 91.4778 77.707C91.3302 77.9839 91.2563 78.3008 91.2563 78.6578C91.2563 79.0147 91.3302 79.3347 91.4778 79.6177C91.6317 79.8947 91.8378 80.1131 92.0963 80.2731C92.3548 80.4331 92.644 80.5131 92.964 80.5131C93.1486 80.5131 93.3301 80.4854 93.5086 80.43C93.687 80.3685 93.8563 80.2823 94.0163 80.1716C94.1763 80.0608 94.3239 79.9223 94.4593 79.7562L94.8655 80.2546C94.6562 80.5316 94.3763 80.7531 94.0255 80.9193C93.6747 81.0854 93.3117 81.1685 92.9363 81.1685ZM96.4288 81.0762V74.9932H97.1211V81.0762H96.4288ZM95.3396 76.9224V76.2578H98.3396V76.9224H95.3396ZM99.3743 81.0762V76.2578H100.067V81.0762H99.3743ZM99.7158 75.2147C99.5435 75.2147 99.4112 75.1717 99.3189 75.0855C99.2327 74.9932 99.1896 74.8701 99.1896 74.7163C99.1896 74.5625 99.2358 74.4394 99.3281 74.3471C99.4204 74.2548 99.5496 74.2086 99.7158 74.2086C99.8819 74.2086 100.011 74.2548 100.103 74.3471C100.196 74.4332 100.242 74.5563 100.242 74.7163C100.242 74.864 100.196 74.984 100.103 75.0763C100.011 75.1686 99.8819 75.2147 99.7158 75.2147ZM103.711 81.1685C103.231 81.1685 102.803 81.0608 102.428 80.8454C102.058 80.63 101.766 80.3316 101.551 79.95C101.342 79.5685 101.237 79.1347 101.237 78.6485C101.237 78.1685 101.342 77.7409 101.551 77.3655C101.766 76.9901 102.058 76.6947 102.428 76.4793C102.803 76.264 103.231 76.1563 103.711 76.1563C104.185 76.1563 104.606 76.264 104.975 76.4793C105.351 76.6947 105.643 76.9901 105.852 77.3655C106.068 77.7409 106.175 78.1685 106.175 78.6485C106.175 79.1347 106.068 79.5685 105.852 79.95C105.643 80.3316 105.351 80.63 104.975 80.8454C104.606 81.0608 104.185 81.1685 103.711 81.1685ZM103.711 80.5131C104.049 80.5131 104.351 80.4331 104.615 80.2731C104.88 80.107 105.086 79.8854 105.234 79.6085C105.381 79.3254 105.455 79.0054 105.455 78.6485C105.455 78.2916 105.381 77.9747 105.234 77.6978C105.086 77.4209 104.88 77.2055 104.615 77.0516C104.351 76.8916 104.049 76.8116 103.711 76.8116C103.372 76.8116 103.068 76.8916 102.797 77.0516C102.532 77.2055 102.323 77.4239 102.169 77.707C102.021 77.9839 101.951 78.2978 101.957 78.6485C101.951 79.0054 102.021 79.3254 102.169 79.6085C102.323 79.8854 102.532 80.107 102.797 80.2731C103.068 80.4331 103.372 80.5131 103.711 80.5131ZM107.185 81.0762V76.2578H107.868L107.896 77.2639L107.785 77.3101C107.847 77.1009 107.967 76.9101 108.145 76.7378C108.324 76.5655 108.536 76.427 108.782 76.3224C109.034 76.2116 109.293 76.1563 109.558 76.1563C109.914 76.1563 110.213 76.227 110.453 76.3686C110.693 76.5101 110.874 76.7286 110.998 77.0239C111.121 77.3193 111.182 77.6947 111.182 78.1501V81.0762H110.481V78.187C110.481 77.867 110.438 77.6055 110.351 77.4024C110.271 77.1932 110.145 77.0393 109.973 76.9409C109.801 76.8424 109.588 76.7963 109.336 76.8024C109.127 76.8024 108.933 76.8393 108.754 76.9132C108.576 76.9809 108.422 77.0762 108.293 77.1993C108.164 77.3224 108.062 77.4639 107.988 77.6239C107.915 77.7839 107.878 77.9562 107.878 78.1408V81.0762H107.536C107.493 81.0762 107.444 81.0762 107.388 81.0762C107.333 81.0762 107.265 81.0762 107.185 81.0762Z" fill="white"/>
<path d="M62.3371 96.0762V88.8968H63.4448V95.0095H66.8088V96.0762H62.3371ZM70.5226 96.1787C69.9688 96.1787 69.4765 96.0625 69.0457 95.83C68.6218 95.5907 68.2868 95.2659 68.0406 94.8557C67.8013 94.4454 67.6817 93.9736 67.6817 93.4403C67.6817 93.0164 67.75 92.6301 67.8868 92.2814C68.0235 91.9327 68.2116 91.6318 68.4509 91.3788C68.697 91.119 68.9876 90.9207 69.3227 90.784C69.6645 90.6404 70.0338 90.5686 70.4303 90.5686C70.779 90.5686 71.1038 90.637 71.4047 90.7737C71.7055 90.9036 71.9653 91.0848 72.1841 91.3173C72.4098 91.5498 72.5807 91.8267 72.697 92.148C72.82 92.4626 72.8781 92.8079 72.8713 93.1839L72.8611 93.6352H68.4611L68.2252 92.7942H71.9483L71.7944 92.9685V92.7224C71.7739 92.4968 71.6987 92.295 71.5688 92.1173C71.4389 91.9395 71.2748 91.7993 71.0765 91.6968C70.8782 91.5942 70.6628 91.5429 70.4303 91.5429C70.0611 91.5429 69.75 91.6147 69.497 91.7583C69.244 91.8951 69.0526 92.1002 68.9227 92.3737C68.7928 92.6403 68.7278 92.972 68.7278 93.3685C68.7278 93.7446 68.8064 94.0728 68.9637 94.3531C69.121 94.6266 69.3432 94.8386 69.6303 94.989C69.9175 95.1394 70.2491 95.2146 70.6252 95.2146C70.8919 95.2146 71.138 95.1702 71.3636 95.0813C71.5961 94.9924 71.8457 94.8318 72.1124 94.5993L72.6457 95.348C72.4816 95.5121 72.2799 95.6557 72.0406 95.7787C71.8081 95.9018 71.5585 96.001 71.2919 96.0762C71.032 96.1445 70.7756 96.1787 70.5226 96.1787ZM74.0194 96.0762V90.6917H75.0758V91.7993L74.8911 91.9224C74.9595 91.6831 75.0929 91.4643 75.2911 91.266C75.4894 91.0609 75.7253 90.8968 75.9988 90.7737C76.2723 90.6438 76.5527 90.5788 76.8398 90.5788C77.2501 90.5788 77.5919 90.6609 77.8654 90.825C78.1389 90.9823 78.3441 91.225 78.4808 91.5532C78.6176 91.8814 78.6859 92.295 78.6859 92.7942V96.0762H77.6296V92.866C77.6296 92.5583 77.5885 92.3053 77.5065 92.107C77.4244 91.9019 77.2979 91.7549 77.127 91.666C76.9561 91.5703 76.7441 91.5293 76.4911 91.5429C76.286 91.5429 76.098 91.5771 75.927 91.6455C75.7561 91.707 75.6057 91.7959 75.4757 91.9121C75.3527 92.0284 75.2535 92.1651 75.1783 92.3224C75.1099 92.4728 75.0758 92.6369 75.0758 92.8147V96.0762H74.5527C74.4638 96.0762 74.3749 96.0762 74.286 96.0762C74.1971 96.0762 74.1083 96.0762 74.0194 96.0762ZM82.6318 96.1787C82.0779 96.1787 81.5856 96.0625 81.1549 95.83C80.731 95.5907 80.3959 95.2659 80.1498 94.8557C79.9105 94.4454 79.7908 93.9736 79.7908 93.4403C79.7908 93.0164 79.8592 92.6301 79.9959 92.2814C80.1327 91.9327 80.3207 91.6318 80.56 91.3788C80.8062 91.119 81.0968 90.9207 81.4318 90.784C81.7737 90.6404 82.1429 90.5686 82.5395 90.5686C82.8882 90.5686 83.213 90.637 83.5138 90.7737C83.8147 90.9036 84.0745 91.0848 84.2933 91.3173C84.5189 91.5498 84.6899 91.8267 84.8061 92.148C84.9292 92.4626 84.9873 92.8079 84.9805 93.1839L84.9702 93.6352H80.5703L80.3344 92.7942H84.0574L83.9036 92.9685V92.7224C83.883 92.4968 83.8078 92.295 83.6779 92.1173C83.548 91.9395 83.3839 91.7993 83.1856 91.6968C82.9873 91.5942 82.7719 91.5429 82.5395 91.5429C82.1703 91.5429 81.8591 91.6147 81.6062 91.7583C81.3532 91.8951 81.1617 92.1002 81.0318 92.3737C80.9019 92.6403 80.8369 92.972 80.8369 93.3685C80.8369 93.7446 80.9156 94.0728 81.0728 94.3531C81.2301 94.6266 81.4523 94.8386 81.7395 94.989C82.0267 95.1394 82.3583 95.2146 82.7343 95.2146C83.001 95.2146 83.2472 95.1702 83.4728 95.0813C83.7053 94.9924 83.9548 94.8318 84.2215 94.5993L84.7548 95.348C84.5907 95.5121 84.389 95.6557 84.1497 95.7787C83.9172 95.9018 83.6677 96.001 83.401 96.0762C83.1412 96.1445 82.8848 96.1787 82.6318 96.1787ZM86.1285 96.0762V90.6917H87.1849V91.7993L87.0003 91.9224C87.0687 91.6831 87.202 91.4643 87.4003 91.266C87.5986 91.0609 87.8345 90.8968 88.108 90.7737C88.3815 90.6438 88.6618 90.5788 88.949 90.5788C89.3592 90.5788 89.7011 90.6609 89.9746 90.825C90.2481 90.9823 90.4532 91.225 90.59 91.5532C90.7267 91.8814 90.7951 92.295 90.7951 92.7942V96.0762H89.7387V92.866C89.7387 92.5583 89.6977 92.3053 89.6156 92.107C89.5336 91.9019 89.4071 91.7549 89.2361 91.666C89.0652 91.5703 88.8532 91.5293 88.6003 91.5429C88.3951 91.5429 88.2071 91.5771 88.0362 91.6455C87.8652 91.707 87.7148 91.7959 87.5849 91.9121C87.4618 92.0284 87.3627 92.1651 87.2875 92.3224C87.2191 92.4728 87.1849 92.6369 87.1849 92.8147V96.0762H86.6618C86.5729 96.0762 86.4841 96.0762 86.3952 96.0762C86.3063 96.0762 86.2174 96.0762 86.1285 96.0762ZM95.3694 96.0762V88.8968H98.4257C98.836 88.8968 99.212 88.9994 99.5539 89.2045C99.9026 89.4028 100.18 89.6763 100.385 90.025C100.59 90.3669 100.692 90.7532 100.692 91.184C100.692 91.5737 100.59 91.9361 100.385 92.2711C100.18 92.6062 99.906 92.8762 99.5641 93.0814C99.2223 93.2796 98.8428 93.3788 98.4257 93.3788H96.477V96.0762H95.3694ZM99.6359 96.0762L97.8103 92.8352L98.9488 92.5788L100.98 96.0864L99.6359 96.0762ZM96.477 92.3121H98.5283C98.7266 92.3121 98.9043 92.2643 99.0616 92.1686C99.2189 92.066 99.3419 91.9292 99.4308 91.7583C99.5197 91.5805 99.5641 91.3857 99.5641 91.1737C99.5641 90.9344 99.506 90.7258 99.3898 90.5481C99.2804 90.3635 99.1231 90.2199 98.918 90.1173C98.7197 90.0148 98.4941 89.9635 98.2411 89.9635H96.477V92.3121ZM104.454 96.1787C103.928 96.1787 103.456 96.0591 103.039 95.8198C102.629 95.5736 102.304 95.242 102.064 94.8249C101.825 94.401 101.705 93.9189 101.705 93.3788C101.705 92.8386 101.825 92.36 102.064 91.9429C102.304 91.519 102.629 91.1874 103.039 90.9481C103.456 90.7019 103.928 90.5788 104.454 90.5788C104.974 90.5788 105.439 90.7019 105.849 90.9481C106.266 91.1874 106.594 91.519 106.834 91.9429C107.073 92.36 107.193 92.8386 107.193 93.3788C107.193 93.9189 107.073 94.401 106.834 94.8249C106.594 95.242 106.266 95.5736 105.849 95.8198C105.439 96.0591 104.974 96.1787 104.454 96.1787ZM104.454 95.2146C104.775 95.2146 105.063 95.136 105.316 94.9788C105.569 94.8147 105.767 94.5959 105.91 94.3224C106.054 94.042 106.122 93.7275 106.116 93.3788C106.122 93.0232 106.054 92.7087 105.91 92.4352C105.767 92.1549 105.569 91.9361 105.316 91.7788C105.063 91.6216 104.775 91.5429 104.454 91.5429C104.133 91.5429 103.842 91.625 103.582 91.7891C103.329 91.9463 103.131 92.1651 102.987 92.4455C102.844 92.719 102.776 93.0301 102.782 93.3788C102.776 93.7275 102.844 94.042 102.987 94.3224C103.131 94.5959 103.329 94.8147 103.582 94.9788C103.842 95.136 104.133 95.2146 104.454 95.2146ZM109.046 98.4351L110.133 95.9223L110.143 96.7633L107.456 90.6917H108.687L110.369 94.6506C110.403 94.7189 110.444 94.8249 110.492 94.9685C110.54 95.1053 110.581 95.242 110.615 95.3787L110.348 95.4403C110.403 95.2967 110.454 95.1531 110.502 95.0095C110.557 94.8659 110.608 94.7224 110.656 94.5788L112.061 90.6917H113.312L111.097 96.0762L110.184 98.4351H109.046Z" fill="white"/>
<path d="M187.033 93.2824V91.8301H190.836V93.2824H187.033ZM195.366 96.1992C194.627 96.1992 193.979 96.0639 193.421 95.7931C192.863 95.5223 192.387 95.1244 191.994 94.5993L192.941 93.3562C193.36 93.8978 193.766 94.2752 194.16 94.4885C194.553 94.7018 194.997 94.8085 195.489 94.8085C195.768 94.8085 196.022 94.7675 196.252 94.6854C196.482 94.5952 196.662 94.4762 196.793 94.3285C196.925 94.1726 196.99 93.9962 196.99 93.7993C196.99 93.6598 196.962 93.5326 196.904 93.4178C196.855 93.2947 196.777 93.188 196.67 93.0978C196.564 92.9993 196.432 92.9091 196.277 92.827C196.121 92.745 195.944 92.6752 195.747 92.6178C195.55 92.5603 195.333 92.507 195.095 92.4578C194.488 92.3347 193.983 92.1583 193.581 91.9286C193.187 91.6906 192.892 91.3952 192.695 91.0424C192.498 90.6896 192.4 90.2753 192.4 89.7994C192.4 89.4383 192.478 89.106 192.634 88.8025C192.798 88.4989 193.019 88.2363 193.298 88.0148C193.577 87.7933 193.901 87.6209 194.27 87.4979C194.64 87.3748 195.038 87.3133 195.464 87.3133C196.137 87.3133 196.732 87.4363 197.249 87.6825C197.766 87.9204 198.192 88.2773 198.529 88.7532L197.618 89.8609C197.339 89.4835 197.015 89.2004 196.646 89.0117C196.285 88.8148 195.891 88.7163 195.464 88.7163C195.169 88.7163 194.91 88.7573 194.689 88.8394C194.476 88.9214 194.307 89.0404 194.184 89.1963C194.061 89.344 194 89.5245 194 89.7378C194 89.9019 194.037 90.0496 194.11 90.1809C194.184 90.304 194.287 90.4147 194.418 90.5132C194.558 90.6117 194.734 90.6978 194.947 90.7717C195.161 90.8455 195.403 90.9111 195.673 90.9686C196.125 91.0588 196.531 91.1819 196.892 91.3378C197.253 91.4855 197.561 91.666 197.815 91.8793C198.069 92.0845 198.262 92.3224 198.393 92.5932C198.525 92.8557 198.59 93.1511 198.59 93.4793C198.59 94.0454 198.455 94.5336 198.184 94.9439C197.922 95.3459 197.548 95.6577 197.064 95.8793C196.58 96.0926 196.014 96.1992 195.366 96.1992ZM194.627 97.1962L194.677 91.5593L195.797 91.9655L195.846 97.1962H194.627ZM196.227 91.9655L195.107 91.5593L195.058 86.4271H196.277L196.227 91.9655ZM202.737 96.0762C202.302 96.0762 201.896 95.9982 201.519 95.8423C201.149 95.6864 200.825 95.4731 200.546 95.2023C200.276 94.9234 200.062 94.5993 199.906 94.2301C199.75 93.8608 199.673 93.4547 199.673 93.0116C199.673 92.7655 199.701 92.5029 199.759 92.2239C199.824 91.945 199.919 91.6496 200.042 91.3378C200.173 91.0178 200.325 90.6855 200.497 90.3409C200.669 89.9963 200.87 89.6353 201.1 89.2578L202.245 87.3133H203.771L203.82 87.4363L202.356 89.8486C202.118 90.2424 201.908 90.6158 201.728 90.9686C201.547 91.3132 201.391 91.6455 201.26 91.9655C201.137 92.2773 201.035 92.5809 200.952 92.8762L200.62 91.7563C200.743 91.4937 200.895 91.2558 201.076 91.0424C201.256 90.8291 201.457 90.6486 201.679 90.5009C201.9 90.3532 202.13 90.2424 202.368 90.1686C202.614 90.0947 202.864 90.0578 203.119 90.0578C203.594 90.0578 204.033 90.1891 204.436 90.4517C204.838 90.706 205.158 91.0465 205.395 91.4732C205.642 91.8998 205.765 92.3675 205.765 92.8762C205.765 93.4916 205.633 94.0413 205.371 94.5254C205.117 95.0013 204.76 95.3787 204.3 95.6577C203.841 95.9367 203.32 96.0762 202.737 96.0762ZM202.749 94.6731C203.045 94.6731 203.307 94.6034 203.537 94.4639C203.775 94.3244 203.96 94.1316 204.091 93.8854C204.222 93.6311 204.288 93.3398 204.288 93.0116C204.288 92.7326 204.218 92.4742 204.079 92.2362C203.947 91.9901 203.767 91.7932 203.537 91.6455C203.307 91.4896 203.049 91.4116 202.762 91.4116C202.45 91.4116 202.171 91.4855 201.925 91.6332C201.687 91.7727 201.498 91.9655 201.359 92.2116C201.227 92.4496 201.162 92.7162 201.162 93.0116C201.162 93.3234 201.227 93.6065 201.359 93.8608C201.498 94.107 201.687 94.3039 201.925 94.4516C202.163 94.5993 202.438 94.6731 202.749 94.6731ZM209.758 96.1131C209.208 96.1131 208.703 96.0023 208.244 95.7808C207.793 95.5511 207.432 95.2475 207.161 94.87C206.89 94.4844 206.755 94.0577 206.755 93.5901C206.755 93.3111 206.792 93.0526 206.865 92.8147C206.947 92.5768 207.062 92.3634 207.21 92.1747C207.366 91.986 207.55 91.8178 207.764 91.6701C207.985 91.5142 208.236 91.3788 208.515 91.264L208.416 91.6086C208.203 91.5183 208.006 91.4116 207.825 91.2886C207.653 91.1655 207.501 91.026 207.37 90.8701C207.247 90.706 207.153 90.5337 207.087 90.3532C207.021 90.1645 206.988 89.9676 206.988 89.7624C206.988 89.3194 207.112 88.9214 207.358 88.5686C207.612 88.2158 207.948 87.9368 208.367 87.7317C208.785 87.5184 209.249 87.4117 209.758 87.4117C210.275 87.4117 210.742 87.5184 211.161 87.7317C211.579 87.9368 211.911 88.2158 212.158 88.5686C212.412 88.9214 212.539 89.3194 212.539 89.7624C212.539 89.9676 212.506 90.1645 212.441 90.3532C212.375 90.5337 212.281 90.7019 212.158 90.8578C212.043 91.0055 211.895 91.145 211.714 91.2763C211.534 91.3993 211.325 91.5101 211.087 91.6086L211.025 91.3132C211.288 91.4034 211.526 91.5224 211.739 91.6701C211.952 91.8178 212.137 91.9901 212.293 92.187C212.449 92.3839 212.568 92.6014 212.65 92.8393C212.74 93.0773 212.785 93.3275 212.785 93.5901C212.785 94.066 212.65 94.4967 212.379 94.8823C212.108 95.2598 211.743 95.5593 211.284 95.7808C210.832 96.0023 210.324 96.1131 209.758 96.1131ZM209.758 94.7347C210.037 94.7347 210.287 94.6813 210.508 94.5747C210.73 94.468 210.902 94.3244 211.025 94.1439C211.157 93.9634 211.222 93.7542 211.222 93.5162C211.222 93.2619 211.157 93.0403 211.025 92.8516C210.902 92.6547 210.73 92.5029 210.508 92.3962C210.287 92.2814 210.037 92.2239 209.758 92.2239C209.487 92.2239 209.241 92.2814 209.019 92.3962C208.806 92.5029 208.634 92.6547 208.502 92.8516C208.371 93.0403 208.305 93.2619 208.305 93.5162C208.305 93.746 208.371 93.9511 208.502 94.1316C208.634 94.3121 208.806 94.4598 209.019 94.5747C209.241 94.6813 209.487 94.7347 209.758 94.7347ZM209.758 90.8701C210.004 90.8701 210.221 90.825 210.41 90.7347C210.607 90.6445 210.759 90.5214 210.865 90.3655C210.972 90.2096 211.025 90.0291 211.025 89.824C211.025 89.6107 210.972 89.426 210.865 89.2701C210.759 89.106 210.607 88.9789 210.41 88.8886C210.221 88.7902 210.004 88.7409 209.758 88.7409C209.52 88.7409 209.302 88.7902 209.105 88.8886C208.917 88.9789 208.769 89.106 208.662 89.2701C208.556 89.426 208.502 89.6107 208.502 89.824C208.502 90.0291 208.556 90.2096 208.662 90.3655C208.769 90.5214 208.917 90.6445 209.105 90.7347C209.302 90.825 209.52 90.8701 209.758 90.8701ZM214.84 96.2116C214.544 96.2116 214.315 96.1254 214.151 95.9531C213.995 95.7808 213.917 95.5387 213.917 95.227C213.917 94.9398 213.999 94.7059 214.163 94.5254C214.335 94.3367 214.561 94.2424 214.84 94.2424C215.135 94.2424 215.361 94.3285 215.517 94.5008C215.681 94.6649 215.763 94.907 215.763 95.227C215.763 95.5141 215.677 95.7521 215.504 95.9408C215.34 96.1213 215.119 96.2116 214.84 96.2116ZM220.185 96.1992C219.487 96.1992 218.888 96.0228 218.388 95.67C217.896 95.309 217.514 94.8003 217.243 94.1439C216.981 93.4793 216.849 92.6875 216.849 91.7686C216.849 90.8496 216.981 90.0619 217.243 89.4055C217.514 88.7409 217.896 88.2322 218.388 87.8794C218.888 87.5184 219.487 87.3379 220.185 87.3379C220.882 87.3379 221.481 87.5184 221.982 87.8794C222.482 88.2322 222.864 88.7409 223.126 89.4055C223.397 90.0619 223.532 90.8496 223.532 91.7686C223.532 92.6875 223.397 93.4793 223.126 94.1439C222.864 94.8003 222.482 95.309 221.982 95.67C221.481 96.0228 220.882 96.1992 220.185 96.1992ZM220.185 94.7962C220.759 94.7962 221.202 94.5336 221.514 94.0085C221.834 93.4752 221.994 92.7285 221.994 91.7686C221.994 90.8004 221.834 90.0496 221.514 89.5163C221.202 88.983 220.759 88.7163 220.185 88.7163C219.61 88.7163 219.163 88.983 218.843 89.5163C218.531 90.0496 218.376 90.8004 218.376 91.7686C218.376 92.7285 218.531 93.4752 218.843 94.0085C219.163 94.5336 219.61 94.7962 220.185 94.7962ZM227.949 96.1992C227.252 96.1992 226.653 96.0228 226.152 95.67C225.66 95.309 225.278 94.8003 225.008 94.1439C224.745 93.4793 224.614 92.6875 224.614 91.7686C224.614 90.8496 224.745 90.0619 225.008 89.4055C225.278 88.7409 225.66 88.2322 226.152 87.8794C226.653 87.5184 227.252 87.3379 227.949 87.3379C228.646 87.3379 229.245 87.5184 229.746 87.8794C230.246 88.2322 230.628 88.7409 230.89 89.4055C231.161 90.0619 231.297 90.8496 231.297 91.7686C231.297 92.6875 231.161 93.4793 230.89 94.1439C230.628 94.8003 230.246 95.309 229.746 95.67C229.245 96.0228 228.646 96.1992 227.949 96.1992ZM227.949 94.7962C228.523 94.7962 228.966 94.5336 229.278 94.0085C229.598 93.4752 229.758 92.7285 229.758 91.7686C229.758 90.8004 229.598 90.0496 229.278 89.5163C228.966 88.983 228.523 88.7163 227.949 88.7163C227.375 88.7163 226.927 88.983 226.607 89.5163C226.296 90.0496 226.14 90.8004 226.14 91.7686C226.14 92.7285 226.296 93.4752 226.607 94.0085C226.927 94.5336 227.375 94.7962 227.949 94.7962Z" fill="white"/>
</g>
<g opacity="0.5">
<rect x="11.2994" y="32.0757" width="243.4" height="44.8971" rx="5.89732" fill="#1C1C1C"/>
<rect x="11.2994" y="32.0757" width="243.4" height="44.8971" rx="5.89732" stroke="#262626" stroke-width="0.512811"/>
<rect x="23.3496" y="43.2598" width="22.5976" height="22.5298" rx="11.2649" fill="#CAFF33"/>
<path fill-rule="evenodd" clip-rule="evenodd" d="M36.6243 49.7623C36.4504 49.9486 36.4613 50.2398 36.6486 50.4128L37.9447 51.6097L32.644 51.6097C32.3884 51.6097 32.1812 51.8158 32.1812 52.07C32.1812 52.3241 32.3884 52.5302 32.644 52.5302L37.9447 52.5302L36.6486 53.7271C36.4613 53.9001 36.4504 54.1913 36.6243 54.3776C36.7983 54.5639 37.0911 54.5747 37.2784 54.4017L39.4381 52.4072C39.5324 52.3201 39.586 52.1979 39.586 52.07C39.586 51.942 39.5324 51.8198 39.4381 51.7327L37.2784 49.7382C37.0911 49.5653 36.7983 49.576 36.6243 49.7623ZM32.6746 54.6717C32.5007 54.4855 32.2078 54.4747 32.0205 54.6477L29.8608 56.6421C29.7665 56.7292 29.7129 56.8514 29.7129 56.9794C29.7129 57.1074 29.7665 57.2296 29.8608 57.3167L32.0205 59.3111C32.2078 59.4841 32.5007 59.4733 32.6746 59.287C32.8485 59.1008 32.8377 58.8095 32.6504 58.6366L31.3542 57.4396H36.6549C36.9105 57.4396 37.1177 57.2336 37.1177 56.9794C37.1177 56.7252 36.9105 56.5191 36.6549 56.5191H31.3542L32.6504 55.3222C32.8377 55.1492 32.8485 54.858 32.6746 54.6717Z" fill="#1C1C1C"/>
<path d="M53.1992 50.0244V44.2645H51.3531V43.563H55.8392V44.2645H53.9192V50.0244H53.1992ZM56.2301 50.0244V45.206H56.9224L56.9408 46.4891L56.867 46.3137C56.9347 46.0983 57.0424 45.8983 57.1901 45.7137C57.3439 45.5291 57.5254 45.3814 57.7347 45.2707C57.9439 45.1599 58.1747 45.1045 58.427 45.1045C58.5316 45.1045 58.63 45.1137 58.7223 45.1322C58.8147 45.1445 58.8916 45.163 58.9531 45.1876L58.7593 45.963C58.6793 45.926 58.5962 45.9014 58.51 45.8891C58.43 45.8706 58.3531 45.8614 58.2793 45.8614C58.0701 45.8614 57.8824 45.8983 57.7162 45.9722C57.5501 46.046 57.4085 46.1506 57.2916 46.286C57.1747 46.4153 57.0855 46.566 57.0239 46.7383C56.9624 46.9106 56.9316 47.0952 56.9316 47.2922V50.0244H56.2301ZM61.3492 50.1167C60.9308 50.1167 60.5523 50.009 60.2139 49.7936C59.8754 49.5721 59.6077 49.2737 59.4108 48.8983C59.2139 48.5168 59.1154 48.086 59.1154 47.606C59.1154 47.1199 59.217 46.6891 59.4201 46.3137C59.6231 45.9383 59.8939 45.643 60.2323 45.4276C60.577 45.2122 60.9616 45.1045 61.3862 45.1045C61.6385 45.1045 61.8723 45.1414 62.0877 45.2153C62.3031 45.2891 62.4938 45.3937 62.66 45.5291C62.8323 45.6583 62.9738 45.8122 63.0846 45.9906C63.2015 46.1629 63.2815 46.3506 63.3246 46.5537L63.1215 46.4522L63.1492 45.206H63.8415V50.0244H63.14V48.8429L63.3246 48.7229C63.2815 48.9075 63.1984 49.086 63.0754 49.2583C62.9523 49.4244 62.8015 49.5721 62.6231 49.7013C62.4508 49.8306 62.2538 49.9321 62.0323 50.006C61.8169 50.0798 61.5892 50.1167 61.3492 50.1167ZM61.5062 49.4521C61.8262 49.4521 62.1123 49.3752 62.3646 49.2214C62.6169 49.0614 62.8138 48.8429 62.9554 48.566C63.1031 48.2829 63.1769 47.9629 63.1769 47.606C63.1769 47.2491 63.1031 46.9322 62.9554 46.6552C62.8138 46.3783 62.6169 46.1599 62.3646 45.9999C62.1123 45.8399 61.8262 45.7599 61.5062 45.7599C61.18 45.7599 60.8908 45.8399 60.6385 45.9999C60.3923 46.1599 60.1954 46.3783 60.0477 46.6552C59.9062 46.9322 59.8354 47.2491 59.8354 47.606C59.8354 47.9568 59.9062 48.2737 60.0477 48.5567C60.1893 48.8337 60.3862 49.0521 60.6385 49.2121C60.8908 49.3721 61.18 49.4521 61.5062 49.4521ZM65.1903 50.0244V45.206H65.8733L65.901 46.2122L65.7902 46.2583C65.8518 46.0491 65.9718 45.8583 66.1502 45.686C66.3287 45.5137 66.541 45.3753 66.7871 45.2707C67.0394 45.1599 67.2979 45.1045 67.5625 45.1045C67.9194 45.1045 68.2179 45.1753 68.4579 45.3168C68.6979 45.4583 68.8794 45.6768 69.0025 45.9722C69.1256 46.2676 69.1871 46.6429 69.1871 47.0983V50.0244H68.4856V47.1352C68.4856 46.8152 68.4425 46.5537 68.3563 46.3506C68.2763 46.1414 68.1502 45.9876 67.9779 45.8891C67.8056 45.7906 67.5933 45.7445 67.341 45.7506C67.1318 45.7506 66.9379 45.7876 66.7595 45.8614C66.581 45.9291 66.4272 46.0245 66.2979 46.1476C66.1687 46.2706 66.0672 46.4122 65.9933 46.5722C65.9195 46.7322 65.8825 46.9045 65.8825 47.0891V50.0244H65.541C65.4979 50.0244 65.4487 50.0244 65.3933 50.0244C65.3379 50.0244 65.2703 50.0244 65.1903 50.0244ZM72.0871 50.1167C71.6748 50.1167 71.3056 50.0398 70.9794 49.886C70.6533 49.7321 70.3948 49.529 70.204 49.2767L70.6933 48.8521C70.8717 49.0675 71.081 49.2306 71.321 49.3414C71.5671 49.4521 71.8409 49.5075 72.1425 49.5075C72.2963 49.5075 72.4348 49.4921 72.5579 49.4613C72.6809 49.4244 72.7886 49.3721 72.8809 49.3044C72.9732 49.2367 73.044 49.1567 73.0932 49.0644C73.1425 48.9721 73.1671 48.8706 73.1671 48.7598C73.1671 48.5567 73.0778 48.3875 72.8994 48.2521C72.8194 48.1968 72.7055 48.1414 72.5579 48.086C72.4102 48.0245 72.2317 47.966 72.0225 47.9106C71.6779 47.8121 71.3917 47.7137 71.164 47.6152C70.9363 47.5106 70.7579 47.3906 70.6287 47.2552C70.5364 47.1445 70.4656 47.0245 70.4164 46.8952C70.3733 46.766 70.3517 46.6245 70.3517 46.4706C70.3517 46.2737 70.3917 46.0922 70.4717 45.926C70.5579 45.7599 70.6748 45.6153 70.8225 45.4922C70.9763 45.363 71.1548 45.2676 71.3579 45.206C71.5671 45.1384 71.7917 45.1045 72.0317 45.1045C72.2594 45.1045 72.484 45.1353 72.7055 45.1968C72.9271 45.2584 73.1332 45.3476 73.324 45.4645C73.5148 45.5814 73.6778 45.7199 73.8132 45.8799L73.3886 46.3414C73.2717 46.2183 73.1425 46.1076 73.0009 46.0091C72.8594 45.9106 72.7086 45.8337 72.5486 45.7783C72.3948 45.723 72.2348 45.6953 72.0686 45.6953C71.9209 45.6953 71.7825 45.7137 71.6533 45.7506C71.5302 45.7876 71.4225 45.8399 71.3302 45.9076C71.244 45.9691 71.1763 46.046 71.1271 46.1383C71.084 46.2306 71.0625 46.3322 71.0625 46.4429C71.0625 46.5353 71.081 46.6183 71.1179 46.6922C71.1548 46.766 71.2071 46.8306 71.2748 46.886C71.361 46.9537 71.4809 47.0183 71.6348 47.0799C71.7948 47.1352 71.9917 47.1937 72.2255 47.2552C72.4963 47.3291 72.724 47.406 72.9086 47.486C73.0994 47.5598 73.2563 47.6491 73.3794 47.7537C73.5455 47.8768 73.6624 48.0183 73.7301 48.1783C73.804 48.3383 73.8409 48.5198 73.8409 48.7229C73.8409 48.9937 73.764 49.2337 73.6101 49.4429C73.4624 49.6521 73.2563 49.8183 72.9917 49.9413C72.7271 50.0583 72.4255 50.1167 72.0871 50.1167ZM76.8087 50.1167C76.3902 50.1167 76.0118 50.009 75.6733 49.7936C75.3349 49.5721 75.0672 49.2737 74.8703 48.8983C74.6733 48.5168 74.5749 48.086 74.5749 47.606C74.5749 47.1199 74.6764 46.6891 74.8795 46.3137C75.0826 45.9383 75.3533 45.643 75.6918 45.4276C76.0364 45.2122 76.421 45.1045 76.8456 45.1045C77.0979 45.1045 77.3317 45.1414 77.5471 45.2153C77.7625 45.2891 77.9533 45.3937 78.1194 45.5291C78.2917 45.6583 78.4333 45.8122 78.544 45.9906C78.661 46.1629 78.741 46.3506 78.784 46.5537L78.581 46.4522L78.6086 45.206H79.3009V50.0244H78.5994V48.8429L78.784 48.7229C78.741 48.9075 78.6579 49.086 78.5348 49.2583C78.4117 49.4244 78.261 49.5721 78.0825 49.7013C77.9102 49.8306 77.7133 49.9321 77.4917 50.006C77.2764 50.0798 77.0487 50.1167 76.8087 50.1167ZM76.9656 49.4521C77.2856 49.4521 77.5717 49.3752 77.824 49.2214C78.0764 49.0614 78.2733 48.8429 78.4148 48.566C78.5625 48.2829 78.6363 47.9629 78.6363 47.606C78.6363 47.2491 78.5625 46.9322 78.4148 46.6552C78.2733 46.3783 78.0764 46.1599 77.824 45.9999C77.5717 45.8399 77.2856 45.7599 76.9656 45.7599C76.6395 45.7599 76.3502 45.8399 76.0979 45.9999C75.8518 46.1599 75.6549 46.3783 75.5072 46.6552C75.3656 46.9322 75.2949 47.2491 75.2949 47.606C75.2949 47.9568 75.3656 48.2737 75.5072 48.5567C75.6487 48.8337 75.8456 49.0521 76.0979 49.2121C76.3502 49.3721 76.6395 49.4521 76.9656 49.4521ZM82.6804 50.1167C82.225 50.1167 81.8189 50.009 81.462 49.7936C81.1051 49.5721 80.822 49.2737 80.6128 48.8983C80.4097 48.5168 80.3082 48.086 80.3082 47.606C80.3082 47.126 80.4097 46.6983 80.6128 46.3229C80.822 45.9414 81.1051 45.643 81.462 45.4276C81.8189 45.2122 82.2281 45.1045 82.6897 45.1045C83.102 45.1045 83.4773 45.1876 83.8158 45.3537C84.1542 45.5137 84.425 45.7383 84.6281 46.0276L84.2219 46.526C84.105 46.3722 83.9635 46.2368 83.7973 46.1199C83.6373 46.003 83.4619 45.9137 83.2712 45.8522C83.0866 45.7845 82.902 45.7506 82.7173 45.7506C82.3912 45.7506 82.0989 45.8337 81.8404 45.9999C81.582 46.1599 81.3758 46.3783 81.222 46.6552C81.0743 46.9322 81.0005 47.2491 81.0005 47.606C81.0005 47.9629 81.0743 48.2829 81.222 48.566C81.3758 48.8429 81.582 49.0614 81.8404 49.2214C82.0989 49.3813 82.3881 49.4613 82.7081 49.4613C82.8927 49.4613 83.0743 49.4337 83.2527 49.3783C83.4312 49.3167 83.6004 49.2306 83.7604 49.1198C83.9204 49.009 84.0681 48.8706 84.2035 48.7044L84.6096 49.2029C84.4004 49.4798 84.1204 49.7013 83.7696 49.8675C83.4189 50.0336 83.0558 50.1167 82.6804 50.1167ZM86.173 50.0244V43.9415H86.8653V50.0244H86.173ZM85.0838 45.8706V45.206H88.0837V45.8706H85.0838ZM89.1184 50.0244V45.206H89.8107V50.0244H89.1184ZM89.4599 44.163C89.2876 44.163 89.1553 44.1199 89.063 44.0338C88.9769 43.9415 88.9338 43.8184 88.9338 43.6645C88.9338 43.5107 88.9799 43.3876 89.0722 43.2953C89.1646 43.203 89.2938 43.1569 89.4599 43.1569C89.6261 43.1569 89.7553 43.203 89.8476 43.2953C89.9399 43.3815 89.9861 43.5045 89.9861 43.6645C89.9861 43.8122 89.9399 43.9322 89.8476 44.0245C89.7553 44.1168 89.6261 44.163 89.4599 44.163ZM93.4548 50.1167C92.9748 50.1167 92.5472 50.009 92.1718 49.7936C91.8026 49.5783 91.5102 49.2798 91.2949 48.8983C91.0856 48.5168 90.981 48.0829 90.981 47.5968C90.981 47.1168 91.0856 46.6891 91.2949 46.3137C91.5102 45.9383 91.8026 45.643 92.1718 45.4276C92.5472 45.2122 92.9748 45.1045 93.4548 45.1045C93.9287 45.1045 94.3502 45.2122 94.7194 45.4276C95.0948 45.643 95.3871 45.9383 95.5963 46.3137C95.8117 46.6891 95.9194 47.1168 95.9194 47.5968C95.9194 48.0829 95.8117 48.5168 95.5963 48.8983C95.3871 49.2798 95.0948 49.5783 94.7194 49.7936C94.3502 50.009 93.9287 50.1167 93.4548 50.1167ZM93.4548 49.4613C93.7933 49.4613 94.0948 49.3813 94.3594 49.2214C94.624 49.0552 94.8302 48.8337 94.9779 48.5567C95.1256 48.2737 95.1994 47.9537 95.1994 47.5968C95.1994 47.2399 95.1256 46.9229 94.9779 46.646C94.8302 46.3691 94.624 46.1537 94.3594 45.9999C94.0948 45.8399 93.7933 45.7599 93.4548 45.7599C93.1164 45.7599 92.8118 45.8399 92.541 45.9999C92.2764 46.1537 92.0672 46.3722 91.9133 46.6552C91.7656 46.9322 91.6949 47.246 91.701 47.5968C91.6949 47.9537 91.7656 48.2737 91.9133 48.5567C92.0672 48.8337 92.2764 49.0552 92.541 49.2214C92.8118 49.3813 93.1164 49.4613 93.4548 49.4613ZM96.9294 50.0244V45.206H97.6125L97.6402 46.2122L97.5294 46.2583C97.591 46.0491 97.7109 45.8583 97.8894 45.686C98.0679 45.5137 98.2802 45.3753 98.5263 45.2707C98.7786 45.1599 99.0371 45.1045 99.3017 45.1045C99.6586 45.1045 99.9571 45.1753 100.197 45.3168C100.437 45.4583 100.619 45.6768 100.742 45.9722C100.865 46.2676 100.926 46.6429 100.926 47.0983V50.0244H100.225V47.1352C100.225 46.8152 100.182 46.5537 100.096 46.3506C100.016 46.1414 99.8894 45.9876 99.7171 45.8891C99.5448 45.7906 99.3325 45.7445 99.0802 45.7506C98.8709 45.7506 98.6771 45.7876 98.4986 45.8614C98.3202 45.9291 98.1663 46.0245 98.0371 46.1476C97.9079 46.2706 97.8063 46.4122 97.7325 46.5722C97.6586 46.7322 97.6217 46.9045 97.6217 47.0891V50.0244H97.2802C97.2371 50.0244 97.1879 50.0244 97.1325 50.0244C97.0771 50.0244 97.0094 50.0244 96.9294 50.0244Z" fill="white"/>
<path d="M52.0813 65.0244V57.8451H53.1684L55.7838 62.1014L55.2607 62.0911L57.9068 57.8451H58.9324V65.0244H57.8248V62.0809C57.8248 61.4655 57.8384 60.9117 57.8658 60.4194C57.9 59.9271 57.9547 59.4382 58.0299 58.9527L58.1735 59.3322L55.8248 62.9629H55.1479L52.871 59.3732L52.9838 58.9527C53.059 59.4108 53.1103 59.8826 53.1377 60.3681C53.1719 60.8467 53.189 61.4176 53.189 62.0809V65.0244H52.0813ZM62.7504 65.127C62.306 65.127 61.8991 65.0039 61.5299 64.7578C61.1675 64.5116 60.8769 64.1766 60.6581 63.7526C60.4393 63.3287 60.3299 62.8501 60.3299 62.3168C60.3299 61.7766 60.4393 61.298 60.6581 60.8809C60.8838 60.457 61.1846 60.1254 61.5607 59.8861C61.9436 59.6467 62.3709 59.5271 62.8427 59.5271C63.123 59.5271 63.3794 59.5681 63.6119 59.6502C63.8444 59.7322 64.0461 59.8484 64.217 59.9989C64.3948 60.1425 64.5384 60.31 64.6478 60.5014C64.764 60.6929 64.8358 60.898 64.8632 61.1168L64.6273 61.0347V59.6399H65.6939V65.0244H64.6273V63.7424L64.8734 63.6706C64.8324 63.8552 64.7469 64.0364 64.617 64.2142C64.4939 64.3851 64.3333 64.539 64.135 64.6757C63.9435 64.8125 63.7281 64.9219 63.4888 65.0039C63.2564 65.086 63.0102 65.127 62.7504 65.127ZM63.0273 64.1526C63.3487 64.1526 63.6324 64.074 63.8786 63.9167C64.1247 63.7595 64.3162 63.5441 64.4529 63.2706C64.5965 62.9903 64.6683 62.6723 64.6683 62.3168C64.6683 61.9681 64.5965 61.657 64.4529 61.3835C64.3162 61.11 64.1247 60.8946 63.8786 60.7373C63.6324 60.5801 63.3487 60.5014 63.0273 60.5014C62.7128 60.5014 62.4324 60.5801 62.1863 60.7373C61.947 60.8946 61.7555 61.11 61.6119 61.3835C61.4752 61.657 61.4068 61.9681 61.4068 62.3168C61.4068 62.6723 61.4752 62.9903 61.6119 63.2706C61.7555 63.5441 61.947 63.7595 62.1863 63.9167C62.4324 64.074 62.7128 64.1526 63.0273 64.1526ZM67.1689 65.0244V59.6399H68.2355V61.3322L68.133 60.9219C68.2082 60.6621 68.3347 60.4262 68.5125 60.2143C68.6971 60.0023 68.9056 59.8348 69.1381 59.7117C69.3774 59.5886 69.6235 59.5271 69.8765 59.5271C69.9928 59.5271 70.1022 59.5373 70.2047 59.5579C70.3141 59.5784 70.3996 59.6023 70.4611 59.6296L70.1842 60.7783C70.1022 60.7442 70.0099 60.7168 69.9073 60.6963C69.8116 60.6689 69.7158 60.6553 69.6201 60.6553C69.4355 60.6553 69.2577 60.6929 69.0868 60.7681C68.9227 60.8365 68.7757 60.9356 68.6458 61.0655C68.5227 61.1886 68.4236 61.3356 68.3484 61.5065C68.2731 61.6706 68.2355 61.8518 68.2355 62.0501V65.0244H67.1689ZM72.2695 63.3424L72.2182 62.1937L74.7925 59.6399H76.2182L72.2695 63.3424ZM71.3054 65.0244V57.4348H72.3618V65.0244H71.3054ZM74.9361 65.0244L72.9054 62.6552L73.6541 61.9681L76.2899 65.0244H74.9361ZM82.4912 65.127C82.1015 65.127 81.7391 65.0757 81.404 64.9731C81.0758 64.8706 80.775 64.7167 80.5015 64.5116C80.2348 64.2996 79.9955 64.0398 79.7836 63.7321L80.5425 62.8604C80.8775 63.339 81.1989 63.6706 81.5066 63.8552C81.8143 64.0398 82.1801 64.1321 82.604 64.1321C82.8638 64.1321 83.0997 64.0911 83.3117 64.009C83.5237 63.927 83.6912 63.8142 83.8142 63.6706C83.9373 63.527 83.9989 63.3629 83.9989 63.1783C83.9989 63.0552 83.9783 62.939 83.9373 62.8296C83.8963 62.7202 83.8313 62.621 83.7424 62.5322C83.6604 62.4433 83.551 62.3612 83.4143 62.286C83.2843 62.2108 83.1305 62.1458 82.9527 62.0911C82.7749 62.0296 82.5698 61.9783 82.3373 61.9373C81.9681 61.8621 81.6468 61.7629 81.3733 61.6399C81.0998 61.5168 80.8707 61.3629 80.6861 61.1783C80.5015 60.9937 80.3647 60.7852 80.2758 60.5527C80.187 60.3134 80.1425 60.0467 80.1425 59.7527C80.1425 59.4655 80.2041 59.1989 80.3271 58.9527C80.457 58.7066 80.6314 58.4946 80.8502 58.3169C81.0758 58.1322 81.3391 57.9921 81.6399 57.8963C81.9408 57.7938 82.2656 57.7425 82.6143 57.7425C82.9835 57.7425 83.3219 57.7904 83.6296 57.8861C83.9373 57.9818 84.2108 58.1254 84.4501 58.3169C84.6894 58.5015 84.8877 58.7305 85.045 59.004L84.2655 59.7732C84.1288 59.5476 83.9749 59.3596 83.804 59.2091C83.633 59.0519 83.445 58.9356 83.2399 58.8604C83.0348 58.7784 82.816 58.7374 82.5835 58.7374C82.3168 58.7374 82.0844 58.7784 81.8861 58.8604C81.6878 58.9425 81.5305 59.0587 81.4143 59.2091C81.3049 59.3527 81.2502 59.5237 81.2502 59.722C81.2502 59.8655 81.2775 59.9989 81.3322 60.1219C81.3869 60.2382 81.469 60.3442 81.5784 60.4399C81.6946 60.5288 81.8485 60.6108 82.0399 60.686C82.2314 60.7544 82.4604 60.8159 82.7271 60.8706C83.1031 60.9527 83.4382 61.0587 83.7322 61.1886C84.0262 61.3117 84.2758 61.4587 84.4809 61.6296C84.686 61.8005 84.8399 61.992 84.9424 62.204C85.0518 62.4159 85.1065 62.645 85.1065 62.8911C85.1065 63.3492 85.0005 63.7458 84.7886 64.0808C84.5766 64.4159 84.2758 64.6757 83.886 64.8603C83.4963 65.0381 83.0314 65.127 82.4912 65.127ZM86.3888 65.0244V59.6399H87.4554V60.7886L87.2606 60.9117C87.3153 60.7339 87.4007 60.563 87.517 60.3989C87.64 60.2348 87.7871 60.0912 87.958 59.9681C88.1358 59.8382 88.3238 59.7356 88.5221 59.6604C88.7272 59.5852 88.9358 59.5476 89.1477 59.5476C89.4554 59.5476 89.7255 59.5989 89.958 59.7014C90.1904 59.804 90.3819 59.9578 90.5323 60.163C90.6827 60.3681 90.7921 60.6245 90.8605 60.9322L90.6964 60.8912L90.7682 60.7168C90.8434 60.5595 90.946 60.4125 91.0759 60.2758C91.2126 60.1322 91.3665 60.0057 91.5374 59.8963C91.7083 59.7869 91.8895 59.7014 92.081 59.6399C92.2724 59.5784 92.4605 59.5476 92.6451 59.5476C93.0485 59.5476 93.3801 59.6296 93.6399 59.7937C93.9066 59.9578 94.1049 60.2074 94.2348 60.5424C94.3715 60.8775 94.4399 61.2946 94.4399 61.7937V65.0244H93.3733V61.8552C93.3733 61.5476 93.3322 61.298 93.2502 61.1065C93.175 60.9083 93.0587 60.7612 92.9015 60.6655C92.7442 60.5698 92.5425 60.5219 92.2964 60.5219C92.1049 60.5219 91.9237 60.5561 91.7528 60.6245C91.5887 60.686 91.4451 60.7749 91.322 60.8912C91.199 61.0074 91.1032 61.1441 91.0349 61.3014C90.9665 61.4518 90.9323 61.6194 90.9323 61.804V65.0244H89.8656V61.8347C89.8656 61.5544 89.8246 61.3185 89.7426 61.1271C89.6605 60.9288 89.5409 60.7783 89.3836 60.6758C89.2263 60.5732 89.0349 60.5219 88.8093 60.5219C88.6178 60.5219 88.44 60.5561 88.2759 60.6245C88.1118 60.686 87.9682 60.7749 87.8452 60.8912C87.7221 61.0006 87.6264 61.1339 87.558 61.2912C87.4896 61.4416 87.4554 61.6057 87.4554 61.7835V65.0244H86.3888ZM96.0286 65.0244V59.6399H97.085V65.0244H96.0286ZM96.5414 58.4502C96.3158 58.4502 96.1414 58.3921 96.0183 58.2758C95.8953 58.1596 95.8337 57.9955 95.8337 57.7835C95.8337 57.5852 95.8953 57.4246 96.0183 57.3015C96.1482 57.1784 96.3226 57.1169 96.5414 57.1169C96.767 57.1169 96.9414 57.175 97.0645 57.2912C97.1875 57.4075 97.2491 57.5716 97.2491 57.7835C97.2491 57.9818 97.1841 58.1425 97.0542 58.2656C96.9311 58.3886 96.7602 58.4502 96.5414 58.4502ZM99.3754 65.0244V58.2656H100.432V65.0244H99.3754ZM98.2575 60.6655V59.6399H101.683V60.6655H98.2575ZM102.645 65.0244V57.4348H103.701V60.7476L103.517 60.8706C103.585 60.6313 103.718 60.4125 103.917 60.2143C104.115 60.0091 104.351 59.845 104.624 59.722C104.898 59.592 105.178 59.5271 105.465 59.5271C105.876 59.5271 106.218 59.6091 106.491 59.7732C106.765 59.9305 106.97 60.1732 107.106 60.5014C107.243 60.8296 107.312 61.2433 107.312 61.7424V65.0244H106.255V61.8142C106.255 61.5065 106.214 61.2535 106.132 61.0553C106.05 60.8501 105.924 60.7031 105.753 60.6142C105.582 60.5185 105.37 60.4775 105.117 60.4912C104.912 60.4912 104.724 60.5254 104.553 60.5937C104.382 60.6553 104.231 60.7442 104.101 60.8604C103.978 60.9766 103.879 61.1134 103.804 61.2706C103.736 61.4211 103.701 61.5852 103.701 61.7629V65.0244H103.178C103.089 65.0244 103.001 65.0244 102.912 65.0244C102.823 65.0244 102.734 65.0244 102.645 65.0244Z" fill="white"/>
<path d="M197.288 62.2306V60.7783H201.091V62.2306H197.288ZM205.622 65.1475C204.883 65.1475 204.235 65.0121 203.677 64.7413C203.119 64.4706 202.643 64.0726 202.249 63.5475L203.197 62.3045C203.616 62.846 204.022 63.2234 204.416 63.4368C204.809 63.6501 205.252 63.7567 205.745 63.7567C206.024 63.7567 206.278 63.7157 206.508 63.6337C206.738 63.5434 206.918 63.4244 207.049 63.2768C207.181 63.1209 207.246 62.9445 207.246 62.7475C207.246 62.608 207.217 62.4809 207.16 62.366C207.111 62.2429 207.033 62.1363 206.926 62.046C206.82 61.9475 206.688 61.8573 206.532 61.7752C206.376 61.6932 206.2 61.6235 206.003 61.566C205.806 61.5086 205.589 61.4553 205.351 61.406C204.744 61.2829 204.239 61.1065 203.837 60.8768C203.443 60.6389 203.148 60.3435 202.951 59.9907C202.754 59.6379 202.656 59.2235 202.656 58.7476C202.656 58.3866 202.733 58.0543 202.889 57.7507C203.053 57.4471 203.275 57.1846 203.554 56.963C203.833 56.7415 204.157 56.5692 204.526 56.4461C204.895 56.323 205.293 56.2615 205.72 56.2615C206.393 56.2615 206.988 56.3846 207.505 56.6307C208.022 56.8687 208.448 57.2256 208.785 57.7015L207.874 58.8091C207.595 58.4317 207.271 58.1486 206.902 57.9599C206.541 57.763 206.147 57.6646 205.72 57.6646C205.425 57.6646 205.166 57.7056 204.945 57.7876C204.731 57.8697 204.563 57.9887 204.44 58.1445C204.317 58.2922 204.256 58.4727 204.256 58.6861C204.256 58.8502 204.292 58.9979 204.366 59.1291C204.44 59.2522 204.543 59.363 204.674 59.4614C204.813 59.5599 204.99 59.6461 205.203 59.7199C205.417 59.7937 205.659 59.8594 205.929 59.9168C206.381 60.0071 206.787 60.1301 207.148 60.286C207.509 60.4337 207.816 60.6142 208.071 60.8276C208.325 61.0327 208.518 61.2706 208.649 61.5414C208.781 61.804 208.846 62.0993 208.846 62.4275C208.846 62.9937 208.711 63.4819 208.44 63.8921C208.177 64.2942 207.804 64.606 207.32 64.8275C206.836 65.0408 206.27 65.1475 205.622 65.1475ZM204.883 66.1444L204.932 60.5076L206.052 60.9137L206.102 66.1444H204.883ZM206.483 60.9137L205.363 60.5076L205.314 55.3754H206.532L206.483 60.9137ZM212.993 65.0244C212.558 65.0244 212.152 64.9465 211.774 64.7906C211.405 64.6347 211.081 64.4213 210.802 64.1506C210.531 63.8716 210.318 63.5475 210.162 63.1783C210.006 62.8091 209.928 62.4029 209.928 61.9599C209.928 61.7137 209.957 61.4511 210.015 61.1722C210.08 60.8932 210.175 60.5978 210.298 60.286C210.429 59.966 210.581 59.6337 210.753 59.2891C210.925 58.9445 211.126 58.5835 211.356 58.2061L212.501 56.2615H214.027L214.076 56.3846L212.611 58.7968C212.373 59.1907 212.164 59.564 211.984 59.9168C211.803 60.2614 211.647 60.5937 211.516 60.9137C211.393 61.2255 211.29 61.5291 211.208 61.8245L210.876 60.7045C210.999 60.4419 211.151 60.204 211.331 59.9907C211.512 59.7773 211.713 59.5968 211.934 59.4491C212.156 59.3014 212.386 59.1907 212.624 59.1168C212.87 59.043 213.12 59.0061 213.374 59.0061C213.85 59.0061 214.289 59.1373 214.691 59.3999C215.093 59.6543 215.413 59.9948 215.651 60.4214C215.897 60.8481 216.021 61.3158 216.021 61.8245C216.021 62.4398 215.889 62.9896 215.627 63.4737C215.372 63.9496 215.015 64.327 214.556 64.606C214.097 64.8849 213.575 65.0244 212.993 65.0244ZM213.005 63.6214C213.301 63.6214 213.563 63.5516 213.793 63.4121C214.031 63.2727 214.215 63.0798 214.347 62.8337C214.478 62.5793 214.544 62.2881 214.544 61.9599C214.544 61.6809 214.474 61.4224 214.334 61.1845C214.203 60.9383 214.023 60.7414 213.793 60.5937C213.563 60.4378 213.305 60.3599 213.018 60.3599C212.706 60.3599 212.427 60.4337 212.181 60.5814C211.943 60.7209 211.754 60.9137 211.614 61.1599C211.483 61.3978 211.418 61.6645 211.418 61.9599C211.418 62.2716 211.483 62.5547 211.614 62.8091C211.754 63.0552 211.943 63.2521 212.181 63.3998C212.419 63.5475 212.693 63.6214 213.005 63.6214ZM220.013 65.0613C219.464 65.0613 218.959 64.9506 218.5 64.729C218.048 64.4993 217.687 64.1957 217.417 63.8183C217.146 63.4326 217.01 63.006 217.01 62.5383C217.01 62.2593 217.047 62.0009 217.121 61.7629C217.203 61.525 217.318 61.3117 217.466 61.123C217.622 60.9342 217.806 60.766 218.02 60.6183C218.241 60.4624 218.491 60.3271 218.77 60.2122L218.672 60.5568C218.459 60.4666 218.262 60.3599 218.081 60.2368C217.909 60.1137 217.757 59.9743 217.626 59.8184C217.503 59.6543 217.408 59.482 217.343 59.3014C217.277 59.1127 217.244 58.9158 217.244 58.7107C217.244 58.2676 217.367 57.8697 217.614 57.5169C217.868 57.1641 218.204 56.8851 218.623 56.68C219.041 56.4666 219.505 56.36 220.013 56.36C220.53 56.36 220.998 56.4666 221.417 56.68C221.835 56.8851 222.167 57.1641 222.413 57.5169C222.668 57.8697 222.795 58.2676 222.795 58.7107C222.795 58.9158 222.762 59.1127 222.696 59.3014C222.631 59.482 222.536 59.6502 222.413 59.8061C222.299 59.9537 222.151 60.0932 221.97 60.2245C221.79 60.3476 221.581 60.4583 221.343 60.5568L221.281 60.2614C221.544 60.3517 221.782 60.4707 221.995 60.6183C222.208 60.766 222.393 60.9383 222.549 61.1353C222.705 61.3322 222.824 61.5496 222.906 61.7876C222.996 62.0255 223.041 62.2757 223.041 62.5383C223.041 63.0142 222.906 63.445 222.635 63.8306C222.364 64.208 221.999 64.5075 221.54 64.729C221.088 64.9506 220.58 65.0613 220.013 65.0613ZM220.013 63.6829C220.292 63.6829 220.543 63.6296 220.764 63.5229C220.986 63.4162 221.158 63.2727 221.281 63.0921C221.412 62.9116 221.478 62.7024 221.478 62.4645C221.478 62.2101 221.412 61.9886 221.281 61.7999C221.158 61.6029 220.986 61.4511 220.764 61.3445C220.543 61.2296 220.292 61.1722 220.013 61.1722C219.743 61.1722 219.497 61.2296 219.275 61.3445C219.062 61.4511 218.889 61.6029 218.758 61.7999C218.627 61.9886 218.561 62.2101 218.561 62.4645C218.561 62.6942 218.627 62.8993 218.758 63.0798C218.889 63.2603 219.062 63.408 219.275 63.5229C219.497 63.6296 219.743 63.6829 220.013 63.6829ZM220.013 59.8184C220.26 59.8184 220.477 59.7732 220.666 59.683C220.863 59.5927 221.014 59.4696 221.121 59.3138C221.228 59.1579 221.281 58.9774 221.281 58.7722C221.281 58.5589 221.228 58.3743 221.121 58.2184C221.014 58.0543 220.863 57.9271 220.666 57.8369C220.477 57.7384 220.26 57.6892 220.013 57.6892C219.776 57.6892 219.558 57.7384 219.361 57.8369C219.172 57.9271 219.025 58.0543 218.918 58.2184C218.811 58.3743 218.758 58.5589 218.758 58.7722C218.758 58.9774 218.811 59.1579 218.918 59.3138C219.025 59.4696 219.172 59.5927 219.361 59.683C219.558 59.7732 219.776 59.8184 220.013 59.8184ZM225.096 65.1598C224.8 65.1598 224.571 65.0736 224.406 64.9013C224.251 64.729 224.173 64.487 224.173 64.1752C224.173 63.888 224.255 63.6542 224.419 63.4737C224.591 63.285 224.817 63.1906 225.096 63.1906C225.391 63.1906 225.617 63.2768 225.773 63.4491C225.937 63.6132 226.019 63.8552 226.019 64.1752C226.019 64.4624 225.933 64.7003 225.76 64.889C225.596 65.0695 225.375 65.1598 225.096 65.1598ZM230.441 65.1475C229.743 65.1475 229.144 64.9711 228.644 64.6183C228.151 64.2572 227.77 63.7485 227.499 63.0921C227.237 62.4275 227.105 61.6358 227.105 60.7168C227.105 59.7978 227.237 59.0102 227.499 58.3538C227.77 57.6892 228.151 57.1805 228.644 56.8276C229.144 56.4666 229.743 56.2861 230.441 56.2861C231.138 56.2861 231.737 56.4666 232.237 56.8276C232.738 57.1805 233.12 57.6892 233.382 58.3538C233.653 59.0102 233.788 59.7978 233.788 60.7168C233.788 61.6358 233.653 62.4275 233.382 63.0921C233.12 63.7485 232.738 64.2572 232.237 64.6183C231.737 64.9711 231.138 65.1475 230.441 65.1475ZM230.441 63.7444C231.015 63.7444 231.458 63.4819 231.77 62.9568C232.09 62.4234 232.25 61.6768 232.25 60.7168C232.25 59.7486 232.09 58.9979 231.77 58.4645C231.458 57.9312 231.015 57.6646 230.441 57.6646C229.866 57.6646 229.419 57.9312 229.099 58.4645C228.787 58.9979 228.631 59.7486 228.631 60.7168C228.631 61.6768 228.787 62.4234 229.099 62.9568C229.419 63.4819 229.866 63.7444 230.441 63.7444ZM238.205 65.1475C237.507 65.1475 236.908 64.9711 236.408 64.6183C235.916 64.2572 235.534 63.7485 235.263 63.0921C235.001 62.4275 234.87 61.6358 234.87 60.7168C234.87 59.7978 235.001 59.0102 235.263 58.3538C235.534 57.6892 235.916 57.1805 236.408 56.8276C236.908 56.4666 237.507 56.2861 238.205 56.2861C238.902 56.2861 239.501 56.4666 240.002 56.8276C240.502 57.1805 240.884 57.6892 241.146 58.3538C241.417 59.0102 241.552 59.7978 241.552 60.7168C241.552 61.6358 241.417 62.4275 241.146 63.0921C240.884 63.7485 240.502 64.2572 240.002 64.6183C239.501 64.9711 238.902 65.1475 238.205 65.1475ZM238.205 63.7444C238.779 63.7444 239.222 63.4819 239.534 62.9568C239.854 62.4234 240.014 61.6768 240.014 60.7168C240.014 59.7486 239.854 58.9979 239.534 58.4645C239.222 57.9312 238.779 57.6646 238.205 57.6646C237.631 57.6646 237.183 57.9312 236.863 58.4645C236.552 58.9979 236.396 59.7486 236.396 60.7168C236.396 61.6768 236.552 62.4234 236.863 62.9568C237.183 63.4819 237.631 63.7444 238.205 63.7444Z" fill="white"/>
</g>
<rect x="1.04351" y="1.02496" width="263.912" height="44.8971" rx="5.89732" fill="#1C1C1C"/>
<rect x="1.04351" y="1.02496" width="263.912" height="44.8971" rx="5.89732" stroke="#262626" stroke-width="0.512811"/>
<rect x="13.0938" y="12.209" width="22.5976" height="22.5298" rx="11.2649" fill="#CAFF33"/>
<path fill-rule="evenodd" clip-rule="evenodd" d="M26.3685 18.7115C26.1946 18.8978 26.2054 19.189 26.3927 19.362L27.6888 20.5589L22.3881 20.5589C22.1325 20.5589 21.9253 20.765 21.9253 21.0192C21.9253 21.2734 22.1325 21.4794 22.3881 21.4794L27.6888 21.4794L26.3927 22.6764C26.2054 22.8493 26.1946 23.1405 26.3685 23.3268C26.5424 23.5131 26.8352 23.5239 27.0225 23.3509L29.1823 21.3564C29.2766 21.2694 29.3302 21.1472 29.3302 21.0192C29.3302 20.8912 29.2766 20.769 29.1823 20.6819L27.0225 18.6874C26.8352 18.5145 26.5424 18.5253 26.3685 18.7115ZM22.4187 23.621C22.2448 23.4347 21.952 23.4239 21.7647 23.5969L19.6049 25.5913C19.5106 25.6784 19.457 25.8006 19.457 25.9286C19.457 26.0566 19.5106 26.1788 19.6049 26.2659L21.7647 28.2603C21.952 28.4333 22.2448 28.4225 22.4187 28.2363C22.5926 28.05 22.5818 27.7588 22.3945 27.5858L21.0984 26.3889H26.3991C26.6547 26.3889 26.8619 26.1828 26.8619 25.9286C26.8619 25.6744 26.6547 25.4683 26.3991 25.4683H21.0984L22.3945 24.2714C22.5818 24.0985 22.5926 23.8072 22.4187 23.621Z" fill="#1C1C1C"/>
<path d="M42.9414 18.9736V13.2137H41.0953V12.5122H45.5813V13.2137H43.6614V18.9736H42.9414ZM45.9723 18.9736V14.1553H46.6646L46.683 15.4383L46.6092 15.2629C46.6769 15.0476 46.7846 14.8476 46.9323 14.6629C47.0861 14.4783 47.2676 14.3306 47.4769 14.2199C47.6861 14.1091 47.9169 14.0537 48.1692 14.0537C48.2738 14.0537 48.3722 14.063 48.4645 14.0814C48.5568 14.0937 48.6338 14.1122 48.6953 14.1368L48.5015 14.9122C48.4215 14.8752 48.3384 14.8506 48.2522 14.8383C48.1722 14.8199 48.0953 14.8106 48.0215 14.8106C47.8122 14.8106 47.6246 14.8476 47.4584 14.9214C47.2922 14.9952 47.1507 15.0999 47.0338 15.2352C46.9169 15.3645 46.8276 15.5152 46.7661 15.6875C46.7046 15.8598 46.6738 16.0445 46.6738 16.2414V18.9736H45.9723ZM51.0914 19.0659C50.673 19.0659 50.2945 18.9582 49.9561 18.7429C49.6176 18.5213 49.3499 18.2229 49.153 17.8475C48.9561 17.466 48.8576 17.0352 48.8576 16.5552C48.8576 16.0691 48.9592 15.6383 49.1622 15.2629C49.3653 14.8876 49.6361 14.5922 49.9745 14.3768C50.3191 14.1614 50.7037 14.0537 51.1284 14.0537C51.3807 14.0537 51.6145 14.0906 51.8299 14.1645C52.0453 14.2383 52.236 14.343 52.4022 14.4783C52.5745 14.6076 52.716 14.7614 52.8268 14.9399C52.9437 15.1122 53.0237 15.2999 53.0668 15.5029L52.8637 15.4014L52.8914 14.1553H53.5837V18.9736H52.8822V17.7921L53.0668 17.6721C53.0237 17.8567 52.9406 18.0352 52.8176 18.2075C52.6945 18.3736 52.5437 18.5213 52.3653 18.6506C52.1929 18.7798 51.996 18.8813 51.7745 18.9552C51.5591 19.029 51.3314 19.0659 51.0914 19.0659ZM51.2484 18.4013C51.5683 18.4013 51.8545 18.3244 52.1068 18.1706C52.3591 18.0106 52.556 17.7921 52.6976 17.5152C52.8452 17.2321 52.9191 16.9121 52.9191 16.5552C52.9191 16.1983 52.8452 15.8814 52.6976 15.6045C52.556 15.3275 52.3591 15.1091 52.1068 14.9491C51.8545 14.7891 51.5683 14.7091 51.2484 14.7091C50.9222 14.7091 50.633 14.7891 50.3807 14.9491C50.1345 15.1091 49.9376 15.3275 49.7899 15.6045C49.6484 15.8814 49.5776 16.1983 49.5776 16.5552C49.5776 16.906 49.6484 17.2229 49.7899 17.506C49.9315 17.7829 50.1284 18.0013 50.3807 18.1613C50.633 18.3213 50.9222 18.4013 51.2484 18.4013ZM54.9324 18.9736V14.1553H55.6155L55.6432 15.1614L55.5324 15.2076C55.594 14.9983 55.714 14.8076 55.8924 14.6353C56.0709 14.463 56.2832 14.3245 56.5293 14.2199C56.7816 14.1091 57.0401 14.0537 57.3047 14.0537C57.6616 14.0537 57.9601 14.1245 58.2001 14.266C58.4401 14.4076 58.6216 14.626 58.7447 14.9214C58.8677 15.2168 58.9293 15.5922 58.9293 16.0475V18.9736H58.2278V16.0845C58.2278 15.7645 58.1847 15.5029 58.0985 15.2999C58.0185 15.0906 57.8924 14.9368 57.7201 14.8383C57.5478 14.7399 57.3355 14.6937 57.0832 14.6999C56.8739 14.6999 56.6801 14.7368 56.5016 14.8106C56.3232 14.8783 56.1693 14.9737 56.0401 15.0968C55.9109 15.2199 55.8093 15.3614 55.7355 15.5214C55.6617 15.6814 55.6247 15.8537 55.6247 16.0383V18.9736H55.2832C55.2401 18.9736 55.1909 18.9736 55.1355 18.9736C55.0801 18.9736 55.0124 18.9736 54.9324 18.9736ZM61.8293 19.0659C61.417 19.0659 61.0478 18.989 60.7216 18.8352C60.3955 18.6813 60.137 18.4783 59.9462 18.226L60.4355 17.8013C60.6139 18.0167 60.8231 18.1798 61.0631 18.2906C61.3093 18.4013 61.5831 18.4567 61.8847 18.4567C62.0385 18.4567 62.177 18.4413 62.3 18.4106C62.4231 18.3736 62.5308 18.3213 62.6231 18.2536C62.7154 18.186 62.7862 18.106 62.8354 18.0137C62.8846 17.9213 62.9093 17.8198 62.9093 17.709C62.9093 17.506 62.82 17.3367 62.6416 17.2014C62.5616 17.146 62.4477 17.0906 62.3 17.0352C62.1523 16.9737 61.9739 16.9152 61.7647 16.8598C61.4201 16.7614 61.1339 16.6629 60.9062 16.5644C60.6785 16.4598 60.5001 16.3398 60.3708 16.2045C60.2785 16.0937 60.2078 15.9737 60.1585 15.8445C60.1155 15.7152 60.0939 15.5737 60.0939 15.4199C60.0939 15.2229 60.1339 15.0414 60.2139 14.8752C60.3001 14.7091 60.417 14.5645 60.5647 14.4414C60.7185 14.3122 60.897 14.2168 61.1001 14.1553C61.3093 14.0876 61.5339 14.0537 61.7739 14.0537C62.0016 14.0537 62.2262 14.0845 62.4477 14.146C62.6693 14.2076 62.8754 14.2968 63.0662 14.4137C63.2569 14.5306 63.42 14.6691 63.5554 14.8291L63.1308 15.2906C63.0139 15.1676 62.8846 15.0568 62.7431 14.9583C62.6016 14.8599 62.4508 14.7829 62.2908 14.7276C62.137 14.6722 61.977 14.6445 61.8108 14.6445C61.6631 14.6445 61.5247 14.6629 61.3954 14.6999C61.2724 14.7368 61.1647 14.7891 61.0724 14.8568C60.9862 14.9183 60.9185 14.9952 60.8693 15.0876C60.8262 15.1799 60.8047 15.2814 60.8047 15.3922C60.8047 15.4845 60.8231 15.5675 60.8601 15.6414C60.897 15.7152 60.9493 15.7798 61.017 15.8352C61.1031 15.9029 61.2231 15.9675 61.377 16.0291C61.537 16.0845 61.7339 16.1429 61.9677 16.2045C62.2385 16.2783 62.4662 16.3552 62.6508 16.4352C62.8416 16.5091 62.9985 16.5983 63.1216 16.7029C63.2877 16.826 63.4046 16.9675 63.4723 17.1275C63.5462 17.2875 63.5831 17.469 63.5831 17.6721C63.5831 17.9429 63.5062 18.1829 63.3523 18.3921C63.2046 18.6013 62.9985 18.7675 62.7339 18.8906C62.4693 19.0075 62.1677 19.0659 61.8293 19.0659ZM66.5509 19.0659C66.1324 19.0659 65.754 18.9582 65.4155 18.7429C65.0771 18.5213 64.8094 18.2229 64.6124 17.8475C64.4155 17.466 64.3171 17.0352 64.3171 16.5552C64.3171 16.0691 64.4186 15.6383 64.6217 15.2629C64.8247 14.8876 65.0955 14.5922 65.434 14.3768C65.7786 14.1614 66.1632 14.0537 66.5878 14.0537C66.8401 14.0537 67.0739 14.0906 67.2893 14.1645C67.5047 14.2383 67.6955 14.343 67.8616 14.4783C68.0339 14.6076 68.1755 14.7614 68.2862 14.9399C68.4031 15.1122 68.4831 15.2999 68.5262 15.5029L68.3231 15.4014L68.3508 14.1553H69.0431V18.9736H68.3416V17.7921L68.5262 17.6721C68.4831 17.8567 68.4001 18.0352 68.277 18.2075C68.1539 18.3736 68.0031 18.5213 67.8247 18.6506C67.6524 18.7798 67.4555 18.8813 67.2339 18.9552C67.0186 19.029 66.7909 19.0659 66.5509 19.0659ZM66.7078 18.4013C67.0278 18.4013 67.3139 18.3244 67.5662 18.1706C67.8185 18.0106 68.0155 17.7921 68.157 17.5152C68.3047 17.2321 68.3785 16.9121 68.3785 16.5552C68.3785 16.1983 68.3047 15.8814 68.157 15.6045C68.0155 15.3275 67.8185 15.1091 67.5662 14.9491C67.3139 14.7891 67.0278 14.7091 66.7078 14.7091C66.3816 14.7091 66.0924 14.7891 65.8401 14.9491C65.594 15.1091 65.397 15.3275 65.2494 15.6045C65.1078 15.8814 65.0371 16.1983 65.0371 16.5552C65.0371 16.906 65.1078 17.2229 65.2494 17.506C65.3909 17.7829 65.5878 18.0013 65.8401 18.1613C66.0924 18.3213 66.3816 18.4013 66.7078 18.4013ZM72.4226 19.0659C71.9672 19.0659 71.5611 18.9582 71.2042 18.7429C70.8473 18.5213 70.5642 18.2229 70.355 17.8475C70.1519 17.466 70.0503 17.0352 70.0503 16.5552C70.0503 16.0752 70.1519 15.6475 70.355 15.2722C70.5642 14.8906 70.8473 14.5922 71.2042 14.3768C71.5611 14.1614 71.9703 14.0537 72.4318 14.0537C72.8441 14.0537 73.2195 14.1368 73.558 14.303C73.8964 14.463 74.1672 14.6876 74.3703 14.9768L73.9641 15.4752C73.8472 15.3214 73.7057 15.186 73.5395 15.0691C73.3795 14.9522 73.2041 14.8629 73.0134 14.8014C72.8288 14.7337 72.6441 14.6999 72.4595 14.6999C72.1334 14.6999 71.8411 14.7829 71.5826 14.9491C71.3242 15.1091 71.118 15.3275 70.9642 15.6045C70.8165 15.8814 70.7426 16.1983 70.7426 16.5552C70.7426 16.9121 70.8165 17.2321 70.9642 17.5152C71.118 17.7921 71.3242 18.0106 71.5826 18.1706C71.8411 18.3306 72.1303 18.4106 72.4503 18.4106C72.6349 18.4106 72.8164 18.3829 72.9949 18.3275C73.1734 18.266 73.3426 18.1798 73.5026 18.069C73.6626 17.9583 73.8103 17.8198 73.9457 17.6537L74.3518 18.1521C74.1426 18.429 73.8626 18.6506 73.5118 18.8167C73.1611 18.9829 72.798 19.0659 72.4226 19.0659ZM75.9152 18.9736V12.8907H76.6075V18.9736H75.9152ZM74.826 14.8199V14.1553H77.8259V14.8199H74.826ZM78.8606 18.9736V14.1553H79.5529V18.9736H78.8606ZM79.2021 13.1122C79.0298 13.1122 78.8975 13.0691 78.8052 12.983C78.719 12.8907 78.676 12.7676 78.676 12.6138C78.676 12.4599 78.7221 12.3368 78.8144 12.2445C78.9067 12.1522 79.036 12.1061 79.2021 12.1061C79.3683 12.1061 79.4975 12.1522 79.5898 12.2445C79.6821 12.3307 79.7283 12.4538 79.7283 12.6138C79.7283 12.7614 79.6821 12.8814 79.5898 12.9737C79.4975 13.0661 79.3683 13.1122 79.2021 13.1122ZM83.197 19.0659C82.717 19.0659 82.2893 18.9582 81.914 18.7429C81.5447 18.5275 81.2524 18.229 81.0371 17.8475C80.8278 17.466 80.7232 17.0321 80.7232 16.546C80.7232 16.066 80.8278 15.6383 81.0371 15.2629C81.2524 14.8876 81.5447 14.5922 81.914 14.3768C82.2893 14.1614 82.717 14.0537 83.197 14.0537C83.6709 14.0537 84.0924 14.1614 84.4616 14.3768C84.837 14.5922 85.1293 14.8876 85.3385 15.2629C85.5539 15.6383 85.6616 16.066 85.6616 16.546C85.6616 17.0321 85.5539 17.466 85.3385 17.8475C85.1293 18.229 84.837 18.5275 84.4616 18.7429C84.0924 18.9582 83.6709 19.0659 83.197 19.0659ZM83.197 18.4106C83.5355 18.4106 83.837 18.3306 84.1016 18.1706C84.3662 18.0044 84.5724 17.7829 84.7201 17.506C84.8678 17.2229 84.9416 16.9029 84.9416 16.546C84.9416 16.1891 84.8678 15.8722 84.7201 15.5952C84.5724 15.3183 84.3662 15.1029 84.1016 14.9491C83.837 14.7891 83.5355 14.7091 83.197 14.7091C82.8586 14.7091 82.554 14.7891 82.2832 14.9491C82.0186 15.1029 81.8093 15.3214 81.6555 15.6045C81.5078 15.8814 81.437 16.1952 81.4432 16.546C81.437 16.9029 81.5078 17.2229 81.6555 17.506C81.8093 17.7829 82.0186 18.0044 82.2832 18.1706C82.554 18.3306 82.8586 18.4106 83.197 18.4106ZM86.6716 18.9736V14.1553H87.3547L87.3824 15.1614L87.2716 15.2076C87.3331 14.9983 87.4531 14.8076 87.6316 14.6353C87.8101 14.463 88.0224 14.3245 88.2685 14.2199C88.5208 14.1091 88.7793 14.0537 89.0439 14.0537C89.4008 14.0537 89.6992 14.1245 89.9392 14.266C90.1792 14.4076 90.3608 14.626 90.4838 14.9214C90.6069 15.2168 90.6685 15.5922 90.6685 16.0475V18.9736H89.9669V16.0845C89.9669 15.7645 89.9239 15.5029 89.8377 15.2999C89.7577 15.0906 89.6316 14.9368 89.4593 14.8383C89.2869 14.7399 89.0746 14.6937 88.8223 14.6999C88.6131 14.6999 88.4193 14.7368 88.2408 14.8106C88.0624 14.8783 87.9085 14.9737 87.7793 15.0968C87.6501 15.2199 87.5485 15.3614 87.4747 15.5214C87.4008 15.6814 87.3639 15.8537 87.3639 16.0383V18.9736H87.0224C86.9793 18.9736 86.9301 18.9736 86.8747 18.9736C86.8193 18.9736 86.7516 18.9736 86.6716 18.9736Z" fill="white"/>
<path d="M43.4439 34.0762C43.2115 34.0762 42.9893 34.0454 42.7773 33.9839C42.5653 33.9224 42.367 33.8335 42.1824 33.7172C42.0047 33.601 41.844 33.4642 41.7004 33.307C41.5568 33.1429 41.4337 32.9651 41.3312 32.7737L42.0286 32.0455C42.1722 32.2506 42.3021 32.4147 42.4183 32.5378C42.5414 32.6608 42.6576 32.7566 42.767 32.8249C42.8764 32.8933 42.9858 32.9412 43.0952 32.9685C43.2046 32.989 43.3209 32.9993 43.4439 32.9993C43.6901 32.9993 43.9055 32.9446 44.0901 32.8352C44.2747 32.719 44.4183 32.5617 44.5209 32.3634C44.6234 32.1651 44.6747 31.9395 44.6747 31.6865V27.8199H43.3619V26.7943H46.89V27.8199H45.7824V31.7891C45.7824 32.1173 45.7242 32.4215 45.608 32.7019C45.4986 32.9754 45.3379 33.2147 45.126 33.4198C44.9208 33.6249 44.6747 33.7856 44.3875 33.9018C44.1072 34.0181 43.7927 34.0762 43.4439 34.0762ZM50.0469 34.0762C49.5204 34.0762 49.0486 33.9565 48.6315 33.7172C48.2213 33.4711 47.8965 33.1395 47.6572 32.7224C47.4179 32.2985 47.2982 31.8164 47.2982 31.2762C47.2982 30.7361 47.4179 30.2575 47.6572 29.8404C47.8965 29.4165 48.2213 29.0848 48.6315 28.8455C49.0486 28.5994 49.5204 28.4763 50.0469 28.4763C50.5665 28.4763 51.0315 28.5994 51.4417 28.8455C51.8588 29.0848 52.187 29.4165 52.4263 29.8404C52.6656 30.2575 52.7853 30.7361 52.7853 31.2762C52.7853 31.8164 52.6656 32.2985 52.4263 32.7224C52.187 33.1395 51.8588 33.4711 51.4417 33.7172C51.0315 33.9565 50.5665 34.0762 50.0469 34.0762ZM50.0469 33.1121C50.3682 33.1121 50.6554 33.0335 50.9084 32.8762C51.1614 32.7121 51.3597 32.4933 51.5032 32.2198C51.6468 31.9395 51.7152 31.625 51.7084 31.2762C51.7152 30.9207 51.6468 30.6062 51.5032 30.3327C51.3597 30.0523 51.1614 29.8335 50.9084 29.6763C50.6554 29.519 50.3682 29.4404 50.0469 29.4404C49.7255 29.4404 49.4349 29.5224 49.1751 29.6865C48.9221 29.8438 48.7238 30.0626 48.5802 30.3429C48.4366 30.6164 48.3683 30.9275 48.3751 31.2762C48.3683 31.625 48.4366 31.9395 48.5802 32.2198C48.7238 32.4933 48.9221 32.7121 49.1751 32.8762C49.4349 33.0335 49.7255 33.1121 50.0469 33.1121ZM56.4491 34.0762C55.8953 34.0762 55.403 33.96 54.9723 33.7275C54.5483 33.4882 54.2133 33.1634 53.9671 32.7531C53.7278 32.3429 53.6082 31.8711 53.6082 31.3378C53.6082 30.9139 53.6766 30.5275 53.8133 30.1788C53.95 29.8301 54.1381 29.5293 54.3774 29.2763C54.6235 29.0165 54.9141 28.8182 55.2492 28.6814C55.591 28.5378 55.9603 28.466 56.3568 28.466C56.7056 28.466 57.0303 28.5344 57.3312 28.6712C57.632 28.8011 57.8919 28.9823 58.1107 29.2148C58.3363 29.4472 58.5072 29.7241 58.6235 30.0455C58.7465 30.36 58.8047 30.7053 58.7978 31.0814L58.7876 31.5327H54.3876L54.1518 30.6916H57.8748L57.7209 30.866V30.6199C57.7004 30.3942 57.6252 30.1925 57.4953 30.0147C57.3654 29.837 57.2013 29.6968 57.003 29.5942C56.8047 29.4917 56.5893 29.4404 56.3568 29.4404C55.9876 29.4404 55.6765 29.5122 55.4235 29.6558C55.1705 29.7925 54.9791 29.9976 54.8492 30.2711C54.7193 30.5378 54.6543 30.8694 54.6543 31.266C54.6543 31.6421 54.7329 31.9703 54.8902 32.2506C55.0475 32.5241 55.2697 32.736 55.5569 32.8865C55.844 33.0369 56.1756 33.1121 56.5517 33.1121C56.8184 33.1121 57.0645 33.0677 57.2902 32.9788C57.5226 32.8899 57.7722 32.7292 58.0389 32.4967L58.5722 33.2454C58.4081 33.4095 58.2064 33.5531 57.9671 33.6762C57.7346 33.7993 57.485 33.8984 57.2184 33.9736C56.9585 34.042 56.7021 34.0762 56.4491 34.0762ZM59.9664 33.9736V26.384H61.0228V33.9736H59.9664ZM66.5842 31.7993L66.5227 30.5583L70.2867 26.7943H71.7431L66.5842 31.7993ZM65.6611 33.9736V26.7943H66.7688V33.9736H65.6611ZM70.42 33.9736L67.6714 30.3019L68.4919 29.5942L71.8046 33.9736H70.42ZM74.9584 34.0762C74.4046 34.0762 73.9123 33.96 73.4815 33.7275C73.0576 33.4882 72.7226 33.1634 72.4764 32.7531C72.2371 32.3429 72.1174 31.8711 72.1174 31.3378C72.1174 30.9139 72.1858 30.5275 72.3226 30.1788C72.4593 29.8301 72.6473 29.5293 72.8867 29.2763C73.1328 29.0165 73.4234 28.8182 73.7584 28.6814C74.1003 28.5378 74.4695 28.466 74.8661 28.466C75.2148 28.466 75.5396 28.5344 75.8404 28.6712C76.1413 28.8011 76.4011 28.9823 76.6199 29.2148C76.8455 29.4472 77.0165 29.7241 77.1327 30.0455C77.2558 30.36 77.3139 30.7053 77.3071 31.0814L77.2968 31.5327H72.8969L72.661 30.6916H76.384L76.2302 30.866V30.6199C76.2097 30.3942 76.1345 30.1925 76.0045 30.0147C75.8746 29.837 75.7105 29.6968 75.5122 29.5942C75.314 29.4917 75.0986 29.4404 74.8661 29.4404C74.4969 29.4404 74.1858 29.5122 73.9328 29.6558C73.6798 29.7925 73.4883 29.9976 73.3584 30.2711C73.2285 30.5378 73.1636 30.8694 73.1636 31.266C73.1636 31.6421 73.2422 31.9703 73.3995 32.2506C73.5567 32.5241 73.7789 32.736 74.0661 32.8865C74.3533 33.0369 74.6849 33.1121 75.061 33.1121C75.3276 33.1121 75.5738 33.0677 75.7994 32.9788C76.0319 32.8899 76.2815 32.7292 76.5481 32.4967L77.0814 33.2454C76.9173 33.4095 76.7156 33.5531 76.4763 33.6762C76.2439 33.7993 75.9943 33.8984 75.7276 33.9736C75.4678 34.042 75.2114 34.0762 74.9584 34.0762ZM78.4551 33.9736V28.5891H79.5115V29.6968L79.3269 29.8199C79.3953 29.5806 79.5286 29.3618 79.7269 29.1635C79.9252 28.9583 80.1611 28.7942 80.4346 28.6712C80.7081 28.5413 80.9884 28.4763 81.2756 28.4763C81.6858 28.4763 82.0277 28.5584 82.3012 28.7225C82.5747 28.8797 82.7798 29.1224 82.9166 29.4506C83.0533 29.7788 83.1217 30.1925 83.1217 30.6916V33.9736H82.0653V30.7634C82.0653 30.4558 82.0243 30.2028 81.9422 30.0045C81.8602 29.7994 81.7337 29.6523 81.5628 29.5635C81.3918 29.4677 81.1799 29.4267 80.9269 29.4404C80.7218 29.4404 80.5337 29.4746 80.3628 29.5429C80.1919 29.6045 80.0414 29.6934 79.9115 29.8096C79.7884 29.9258 79.6893 30.0626 79.6141 30.2199C79.5457 30.3703 79.5115 30.5344 79.5115 30.7122V33.9736H78.9885C78.8996 33.9736 78.8107 33.9736 78.7218 33.9736C78.6329 33.9736 78.544 33.9736 78.4551 33.9736ZM84.5753 33.9736V26.384H85.6317V33.9736H84.5753ZM89.5415 34.0762C88.9876 34.0762 88.4953 33.96 88.0646 33.7275C87.6406 33.4882 87.3056 33.1634 87.0595 32.7531C86.8201 32.3429 86.7005 31.8711 86.7005 31.3378C86.7005 30.9139 86.7689 30.5275 86.9056 30.1788C87.0424 29.8301 87.2304 29.5293 87.4697 29.2763C87.7159 29.0165 88.0064 28.8182 88.3415 28.6814C88.6834 28.5378 89.0526 28.466 89.4492 28.466C89.7979 28.466 90.1226 28.5344 90.4235 28.6712C90.7243 28.8011 90.9842 28.9823 91.203 29.2148C91.4286 29.4472 91.5995 29.7241 91.7158 30.0455C91.8388 30.36 91.897 30.7053 91.8901 31.0814L91.8799 31.5327H87.48L87.2441 30.6916H90.9671L90.8132 30.866V30.6199C90.7927 30.3942 90.7175 30.1925 90.5876 30.0147C90.4577 29.837 90.2936 29.6968 90.0953 29.5942C89.897 29.4917 89.6816 29.4404 89.4492 29.4404C89.0799 29.4404 88.7688 29.5122 88.5158 29.6558C88.2628 29.7925 88.0714 29.9976 87.9415 30.2711C87.8116 30.5378 87.7466 30.8694 87.7466 31.266C87.7466 31.6421 87.8253 31.9703 87.9825 32.2506C88.1398 32.5241 88.362 32.736 88.6492 32.8865C88.9363 33.0369 89.268 33.1121 89.644 33.1121C89.9107 33.1121 90.1568 33.0677 90.3825 32.9788C90.6149 32.8899 90.8645 32.7292 91.1312 32.4967L91.6645 33.2454C91.5004 33.4095 91.2987 33.5531 91.0594 33.6762C90.8269 33.7993 90.5773 33.8984 90.3107 33.9736C90.0508 34.042 89.7944 34.0762 89.5415 34.0762ZM93.8406 36.3326L94.9277 33.8198L94.938 34.6608L92.2509 28.5891H93.4816L95.1636 32.548C95.1978 32.6164 95.2388 32.7224 95.2867 32.866C95.3346 33.0027 95.3756 33.1395 95.4098 33.2762L95.1431 33.3377C95.1978 33.1942 95.2491 33.0506 95.297 32.907C95.3517 32.7634 95.4029 32.6198 95.4508 32.4762L96.8559 28.5891H98.1072L95.8918 33.9736L94.979 36.3326H93.8406Z" fill="white"/>
<path d="M207.544 31.1798V29.7276H211.347V31.1798H207.544ZM215.877 34.0967C215.139 34.0967 214.491 33.9613 213.933 33.6906C213.375 33.4198 212.899 33.0219 212.505 32.4967L213.453 31.2537C213.871 31.7952 214.278 32.1726 214.671 32.386C215.065 32.5993 215.508 32.706 216.001 32.706C216.28 32.706 216.534 32.6649 216.764 32.5829C216.993 32.4926 217.174 32.3737 217.305 32.226C217.436 32.0701 217.502 31.8937 217.502 31.6968C217.502 31.5573 217.473 31.4301 217.416 31.3152C217.367 31.1921 217.289 31.0855 217.182 30.9952C217.075 30.8968 216.944 30.8065 216.788 30.7245C216.632 30.6424 216.456 30.5727 216.259 30.5152C216.062 30.4578 215.845 30.4045 215.607 30.3552C215 30.2322 214.495 30.0558 214.093 29.826C213.699 29.5881 213.404 29.2927 213.207 28.9399C213.01 28.5871 212.911 28.1727 212.911 27.6968C212.911 27.3358 212.989 27.0035 213.145 26.6999C213.309 26.3963 213.531 26.1338 213.81 25.9122C214.089 25.6907 214.413 25.5184 214.782 25.3953C215.151 25.2723 215.549 25.2107 215.976 25.2107C216.649 25.2107 217.244 25.3338 217.761 25.5799C218.277 25.8179 218.704 26.1748 219.041 26.6507L218.13 27.7584C217.851 27.3809 217.527 27.0979 217.157 26.9092C216.796 26.7122 216.403 26.6138 215.976 26.6138C215.681 26.6138 215.422 26.6548 215.201 26.7368C214.987 26.8189 214.819 26.9379 214.696 27.0938C214.573 27.2415 214.511 27.422 214.511 27.6353C214.511 27.7994 214.548 27.9471 214.622 28.0784C214.696 28.2014 214.799 28.3122 214.93 28.4107C215.069 28.5091 215.246 28.5953 215.459 28.6691C215.672 28.743 215.914 28.8086 216.185 28.866C216.636 28.9563 217.043 29.0794 217.404 29.2353C217.765 29.383 218.072 29.5635 218.327 29.7768C218.581 29.9819 218.774 30.2199 218.905 30.4906C219.036 30.7532 219.102 31.0486 219.102 31.3768C219.102 31.9429 218.967 32.4311 218.696 32.8413C218.433 33.2434 218.06 33.5552 217.576 33.7767C217.092 33.99 216.526 34.0967 215.877 34.0967ZM215.139 35.0936L215.188 29.4568L216.308 29.8629L216.357 35.0936H215.139ZM216.739 29.8629L215.619 29.4568L215.57 24.3246H216.788L216.739 29.8629ZM223.249 33.9736C222.814 33.9736 222.408 33.8957 222.03 33.7398C221.661 33.5839 221.337 33.3706 221.058 33.0998C220.787 32.8208 220.574 32.4967 220.418 32.1275C220.262 31.7583 220.184 31.3521 220.184 30.9091C220.184 30.6629 220.213 30.4004 220.27 30.1214C220.336 29.8424 220.43 29.5471 220.553 29.2353C220.685 28.9153 220.837 28.583 221.009 28.2384C221.181 27.8937 221.382 27.5327 221.612 27.1553L222.756 25.2107H224.283L224.332 25.3338L222.867 27.7461C222.629 28.1399 222.42 28.5132 222.24 28.866C222.059 29.2106 221.903 29.5429 221.772 29.8629C221.649 30.1747 221.546 30.4783 221.464 30.7737L221.132 29.6537C221.255 29.3912 221.407 29.1532 221.587 28.9399C221.768 28.7266 221.969 28.546 222.19 28.3984C222.412 28.2507 222.642 28.1399 222.88 28.0661C223.126 27.9922 223.376 27.9553 223.63 27.9553C224.106 27.9553 224.545 28.0866 224.947 28.3491C225.349 28.6035 225.669 28.944 225.907 29.3706C226.153 29.7973 226.276 30.265 226.276 30.7737C226.276 31.3891 226.145 31.9388 225.883 32.4229C225.628 32.8988 225.271 33.2762 224.812 33.5552C224.352 33.8341 223.831 33.9736 223.249 33.9736ZM223.261 32.5706C223.556 32.5706 223.819 32.5008 224.049 32.3614C224.287 32.2219 224.471 32.0291 224.603 31.7829C224.734 31.5286 224.8 31.2373 224.8 30.9091C224.8 30.6301 224.73 30.3717 224.59 30.1337C224.459 29.8876 224.279 29.6906 224.049 29.5429C223.819 29.3871 223.561 29.3091 223.273 29.3091C222.962 29.3091 222.683 29.383 222.436 29.5306C222.199 29.6701 222.01 29.8629 221.87 30.1091C221.739 30.347 221.673 30.6137 221.673 30.9091C221.673 31.2209 221.739 31.5039 221.87 31.7583C222.01 32.0044 222.199 32.2014 222.436 32.349C222.674 32.4967 222.949 32.5706 223.261 32.5706ZM230.269 34.0106C229.72 34.0106 229.215 33.8998 228.756 33.6783C228.304 33.4485 227.943 33.1449 227.672 32.7675C227.402 32.3819 227.266 31.9552 227.266 31.4875C227.266 31.2086 227.303 30.9501 227.377 30.7122C227.459 30.4742 227.574 30.2609 227.722 30.0722C227.878 29.8835 228.062 29.7153 228.276 29.5676C228.497 29.4117 228.747 29.2763 229.026 29.1614L228.928 29.506C228.714 29.4158 228.518 29.3091 228.337 29.186C228.165 29.063 228.013 28.9235 227.882 28.7676C227.759 28.6035 227.664 28.4312 227.599 28.2507C227.533 28.062 227.5 27.865 227.5 27.6599C227.5 27.2168 227.623 26.8189 227.869 26.4661C228.124 26.1133 228.46 25.8343 228.879 25.6292C229.297 25.4158 229.761 25.3092 230.269 25.3092C230.786 25.3092 231.254 25.4158 231.672 25.6292C232.091 25.8343 232.423 26.1133 232.669 26.4661C232.924 26.8189 233.051 27.2168 233.051 27.6599C233.051 27.865 233.018 28.062 232.952 28.2507C232.887 28.4312 232.792 28.5994 232.669 28.7553C232.554 28.903 232.407 29.0424 232.226 29.1737C232.046 29.2968 231.836 29.4076 231.599 29.506L231.537 29.2106C231.8 29.3009 232.038 29.4199 232.251 29.5676C232.464 29.7153 232.649 29.8876 232.805 30.0845C232.961 30.2814 233.08 30.4988 233.162 30.7368C233.252 30.9747 233.297 31.225 233.297 31.4875C233.297 31.9634 233.162 32.3942 232.891 32.7798C232.62 33.1572 232.255 33.4567 231.795 33.6783C231.344 33.8998 230.835 34.0106 230.269 34.0106ZM230.269 32.6321C230.548 32.6321 230.799 32.5788 231.02 32.4721C231.242 32.3655 231.414 32.2219 231.537 32.0414C231.668 31.8609 231.734 31.6516 231.734 31.4137C231.734 31.1593 231.668 30.9378 231.537 30.7491C231.414 30.5522 231.242 30.4004 231.02 30.2937C230.799 30.1788 230.548 30.1214 230.269 30.1214C229.999 30.1214 229.752 30.1788 229.531 30.2937C229.318 30.4004 229.145 30.5522 229.014 30.7491C228.883 30.9378 228.817 31.1593 228.817 31.4137C228.817 31.6434 228.883 31.8485 229.014 32.0291C229.145 32.2096 229.318 32.3573 229.531 32.4721C229.752 32.5788 229.999 32.6321 230.269 32.6321ZM230.269 28.7676C230.515 28.7676 230.733 28.7225 230.922 28.6322C231.119 28.5419 231.27 28.4189 231.377 28.263C231.484 28.1071 231.537 27.9266 231.537 27.7214C231.537 27.5081 231.484 27.3235 231.377 27.1676C231.27 27.0035 231.119 26.8763 230.922 26.7861C230.733 26.6876 230.515 26.6384 230.269 26.6384C230.031 26.6384 229.814 26.6876 229.617 26.7861C229.428 26.8763 229.281 27.0035 229.174 27.1676C229.067 27.3235 229.014 27.5081 229.014 27.7214C229.014 27.9266 229.067 28.1071 229.174 28.263C229.281 28.4189 229.428 28.5419 229.617 28.6322C229.814 28.7225 230.031 28.7676 230.269 28.7676ZM235.352 34.109C235.056 34.109 234.826 34.0229 234.662 33.8506C234.506 33.6783 234.428 33.4362 234.428 33.1244C234.428 32.8372 234.511 32.6034 234.675 32.4229C234.847 32.2342 235.073 32.1398 235.352 32.1398C235.647 32.1398 235.873 32.226 236.028 32.3983C236.193 32.5624 236.275 32.8044 236.275 33.1244C236.275 33.4116 236.188 33.6495 236.016 33.8383C235.852 34.0188 235.631 34.109 235.352 34.109ZM240.696 34.0967C239.999 34.0967 239.4 33.9203 238.9 33.5675C238.407 33.2065 238.026 32.6978 237.755 32.0414C237.492 31.3768 237.361 30.585 237.361 29.666C237.361 28.7471 237.492 27.9594 237.755 27.303C238.026 26.6384 238.407 26.1297 238.9 25.7769C239.4 25.4158 239.999 25.2353 240.696 25.2353C241.394 25.2353 241.993 25.4158 242.493 25.7769C242.994 26.1297 243.375 26.6384 243.638 27.303C243.909 27.9594 244.044 28.7471 244.044 29.666C244.044 30.585 243.909 31.3768 243.638 32.0414C243.375 32.6978 242.994 33.2065 242.493 33.5675C241.993 33.9203 241.394 34.0967 240.696 34.0967ZM240.696 32.6937C241.271 32.6937 241.714 32.4311 242.026 31.906C242.346 31.3727 242.506 30.626 242.506 29.666C242.506 28.6978 242.346 27.9471 242.026 27.4138C241.714 26.8804 241.271 26.6138 240.696 26.6138C240.122 26.6138 239.675 26.8804 239.355 27.4138C239.043 27.9471 238.887 28.6978 238.887 29.666C238.887 30.626 239.043 31.3727 239.355 31.906C239.675 32.4311 240.122 32.6937 240.696 32.6937ZM248.461 34.0967C247.763 34.0967 247.164 33.9203 246.664 33.5675C246.172 33.2065 245.79 32.6978 245.519 32.0414C245.257 31.3768 245.125 30.585 245.125 29.666C245.125 28.7471 245.257 27.9594 245.519 27.303C245.79 26.6384 246.172 26.1297 246.664 25.7769C247.164 25.4158 247.763 25.2353 248.461 25.2353C249.158 25.2353 249.757 25.4158 250.258 25.7769C250.758 26.1297 251.14 26.6384 251.402 27.303C251.673 27.9594 251.808 28.7471 251.808 29.666C251.808 30.585 251.673 31.3768 251.402 32.0414C251.14 32.6978 250.758 33.2065 250.258 33.5675C249.757 33.9203 249.158 34.0967 248.461 34.0967ZM248.461 32.6937C249.035 32.6937 249.478 32.4311 249.79 31.906C250.11 31.3727 250.27 30.626 250.27 29.666C250.27 28.6978 250.11 27.9471 249.79 27.4138C249.478 26.8804 249.035 26.6138 248.461 26.6138C247.886 26.6138 247.439 26.8804 247.119 27.4138C246.807 27.9471 246.652 28.6978 246.652 29.666C246.652 30.626 246.807 31.3727 247.119 31.906C247.439 32.4311 247.886 32.6937 248.461 32.6937Z" fill="white"/>
</svg>
